<mxfile host="app.diagrams.net" modified="2024-06-04T11:30:16.803Z" agent="Mozilla/5.0 (X11; Linux x86_64; rv:109.0) Gecko/20100101 Firefox/115.0" etag="Y13EKqDQFuJMfQTU5s8K" version="24.4.13" type="github" pages="3">
  <diagram id="fc1f3b67-3c9b-b1b3-7705-706421d27264" name="musica">
    <mxGraphModel dx="2517" dy="645" grid="0" gridSize="10" guides="1" tooltips="1" connect="1" arrows="0" fold="1" page="0" pageScale="1" pageWidth="850" pageHeight="1100" math="0" shadow="0">
      <root>
        <mxCell id="0" />
        <mxCell id="1" parent="0" />
        <mxCell id="0mCc02Ch6F-0x3EUyyMh-1" value="Concorso" style="strokeWidth=2;whiteSpace=wrap;html=1;align=center;fontSize=13;fontFamily=Helvetica;" vertex="1" parent="1">
          <mxGeometry x="153" y="410" width="156" height="70" as="geometry" />
        </mxCell>
        <mxCell id="0mCc02Ch6F-0x3EUyyMh-3" style="edgeStyle=orthogonalEdgeStyle;rounded=0;orthogonalLoop=1;jettySize=auto;html=1;exitX=0.5;exitY=1;exitDx=0;exitDy=0;strokeColor=default;endArrow=none;endFill=0;entryX=0.25;entryY=0;entryDx=0;entryDy=0;" edge="1" parent="1" source="0mCc02Ch6F-0x3EUyyMh-2" target="0mCc02Ch6F-0x3EUyyMh-1">
          <mxGeometry relative="1" as="geometry" />
        </mxCell>
        <mxCell id="0mCc02Ch6F-0x3EUyyMh-2" value="&lt;u&gt;Titolo&lt;/u&gt;" style="ellipse;whiteSpace=wrap;html=1;aspect=fixed;fontSize=10;fontColor=default;" vertex="1" parent="1">
          <mxGeometry x="147" y="263" width="40" height="40" as="geometry" />
        </mxCell>
        <mxCell id="0mCc02Ch6F-0x3EUyyMh-5" value="" style="edgeStyle=orthogonalEdgeStyle;rounded=0;orthogonalLoop=1;jettySize=auto;html=1;endArrow=none;endFill=0;" edge="1" parent="1" source="0mCc02Ch6F-0x3EUyyMh-4" target="0mCc02Ch6F-0x3EUyyMh-1">
          <mxGeometry relative="1" as="geometry" />
        </mxCell>
        <mxCell id="0mCc02Ch6F-0x3EUyyMh-4" value="Data inizio" style="ellipse;whiteSpace=wrap;html=1;aspect=fixed;fontSize=10;fontColor=default;" vertex="1" parent="1">
          <mxGeometry x="211" y="263" width="40" height="40" as="geometry" />
        </mxCell>
        <mxCell id="0mCc02Ch6F-0x3EUyyMh-7" value="" style="edgeStyle=orthogonalEdgeStyle;rounded=0;orthogonalLoop=1;jettySize=auto;html=1;endArrow=none;endFill=0;" edge="1" parent="1" source="0mCc02Ch6F-0x3EUyyMh-6" target="0mCc02Ch6F-0x3EUyyMh-1">
          <mxGeometry relative="1" as="geometry">
            <Array as="points">
              <mxPoint x="300" y="358" />
              <mxPoint x="277" y="358" />
            </Array>
          </mxGeometry>
        </mxCell>
        <mxCell id="0mCc02Ch6F-0x3EUyyMh-6" value="Data fine" style="ellipse;whiteSpace=wrap;html=1;aspect=fixed;fontSize=10;fontColor=default;" vertex="1" parent="1">
          <mxGeometry x="280" y="266" width="40" height="40" as="geometry" />
        </mxCell>
        <mxCell id="0mCc02Ch6F-0x3EUyyMh-60" style="edgeStyle=orthogonalEdgeStyle;rounded=0;orthogonalLoop=1;jettySize=auto;html=1;exitX=0;exitY=0.5;exitDx=0;exitDy=0;endArrow=none;endFill=0;" edge="1" parent="1" source="0mCc02Ch6F-0x3EUyyMh-15" target="0mCc02Ch6F-0x3EUyyMh-29">
          <mxGeometry relative="1" as="geometry" />
        </mxCell>
        <mxCell id="0mCc02Ch6F-0x3EUyyMh-15" value="Studente" style="strokeWidth=2;whiteSpace=wrap;html=1;align=center;fontSize=13;fontFamily=Helvetica;" vertex="1" parent="1">
          <mxGeometry x="153" y="664" width="156" height="70" as="geometry" />
        </mxCell>
        <mxCell id="0mCc02Ch6F-0x3EUyyMh-17" style="edgeStyle=orthogonalEdgeStyle;rounded=0;orthogonalLoop=1;jettySize=auto;html=1;exitX=0.5;exitY=0;exitDx=0;exitDy=0;endArrow=none;endFill=0;" edge="1" parent="1" source="0mCc02Ch6F-0x3EUyyMh-16" target="0mCc02Ch6F-0x3EUyyMh-1">
          <mxGeometry relative="1" as="geometry" />
        </mxCell>
        <mxCell id="0mCc02Ch6F-0x3EUyyMh-18" style="edgeStyle=orthogonalEdgeStyle;rounded=0;orthogonalLoop=1;jettySize=auto;html=1;exitX=0.5;exitY=1;exitDx=0;exitDy=0;endArrow=none;endFill=0;" edge="1" parent="1" source="0mCc02Ch6F-0x3EUyyMh-16" target="0mCc02Ch6F-0x3EUyyMh-15">
          <mxGeometry relative="1" as="geometry" />
        </mxCell>
        <mxCell id="0mCc02Ch6F-0x3EUyyMh-16" value="Partecipa" style="shape=rhombus;strokeWidth=2;fontSize=13;perimeter=rhombusPerimeter;whiteSpace=wrap;html=1;align=center;" vertex="1" parent="1">
          <mxGeometry x="196" y="537" width="70" height="70" as="geometry" />
        </mxCell>
        <mxCell id="0mCc02Ch6F-0x3EUyyMh-20" style="edgeStyle=orthogonalEdgeStyle;rounded=0;orthogonalLoop=1;jettySize=auto;html=1;exitX=0.5;exitY=0;exitDx=0;exitDy=0;entryX=0.25;entryY=1;entryDx=0;entryDy=0;endArrow=none;endFill=0;" edge="1" parent="1" source="0mCc02Ch6F-0x3EUyyMh-19" target="0mCc02Ch6F-0x3EUyyMh-15">
          <mxGeometry relative="1" as="geometry" />
        </mxCell>
        <mxCell id="0mCc02Ch6F-0x3EUyyMh-19" value="&lt;u&gt;Matricola&lt;/u&gt;" style="ellipse;whiteSpace=wrap;html=1;aspect=fixed;fontSize=10;fontColor=default;" vertex="1" parent="1">
          <mxGeometry x="147" y="798" width="40" height="40" as="geometry" />
        </mxCell>
        <mxCell id="0mCc02Ch6F-0x3EUyyMh-22" style="edgeStyle=orthogonalEdgeStyle;rounded=0;orthogonalLoop=1;jettySize=auto;html=1;exitX=0.5;exitY=0;exitDx=0;exitDy=0;endArrow=none;endFill=0;" edge="1" parent="1" source="0mCc02Ch6F-0x3EUyyMh-21" target="0mCc02Ch6F-0x3EUyyMh-15">
          <mxGeometry relative="1" as="geometry" />
        </mxCell>
        <mxCell id="0mCc02Ch6F-0x3EUyyMh-21" value="Nome" style="ellipse;whiteSpace=wrap;html=1;aspect=fixed;fontSize=10;fontColor=default;" vertex="1" parent="1">
          <mxGeometry x="211" y="798" width="40" height="40" as="geometry" />
        </mxCell>
        <mxCell id="0mCc02Ch6F-0x3EUyyMh-24" style="edgeStyle=orthogonalEdgeStyle;rounded=0;orthogonalLoop=1;jettySize=auto;html=1;exitX=0.5;exitY=0;exitDx=0;exitDy=0;entryX=0.75;entryY=1;entryDx=0;entryDy=0;endArrow=none;endFill=0;" edge="1" parent="1" source="0mCc02Ch6F-0x3EUyyMh-23" target="0mCc02Ch6F-0x3EUyyMh-15">
          <mxGeometry relative="1" as="geometry" />
        </mxCell>
        <mxCell id="0mCc02Ch6F-0x3EUyyMh-23" value="Cognome" style="ellipse;whiteSpace=wrap;html=1;aspect=fixed;fontSize=10;fontColor=default;" vertex="1" parent="1">
          <mxGeometry x="280" y="798" width="40" height="40" as="geometry" />
        </mxCell>
        <mxCell id="0mCc02Ch6F-0x3EUyyMh-58" style="edgeStyle=orthogonalEdgeStyle;rounded=0;orthogonalLoop=1;jettySize=auto;html=1;exitX=0;exitY=0.5;exitDx=0;exitDy=0;endArrow=none;endFill=0;entryX=0.5;entryY=1;entryDx=0;entryDy=0;" edge="1" parent="1" source="0mCc02Ch6F-0x3EUyyMh-29" target="0mCc02Ch6F-0x3EUyyMh-66">
          <mxGeometry relative="1" as="geometry">
            <mxPoint x="-112" y="692" as="targetPoint" />
          </mxGeometry>
        </mxCell>
        <mxCell id="0mCc02Ch6F-0x3EUyyMh-29" value="Suona" style="shape=rhombus;strokeWidth=2;fontSize=13;perimeter=rhombusPerimeter;whiteSpace=wrap;html=1;align=center;" vertex="1" parent="1">
          <mxGeometry x="-154" y="608" width="70" height="70" as="geometry" />
        </mxCell>
        <mxCell id="0mCc02Ch6F-0x3EUyyMh-35" style="edgeStyle=orthogonalEdgeStyle;rounded=0;orthogonalLoop=1;jettySize=auto;html=1;exitX=0;exitY=0.5;exitDx=0;exitDy=0;endArrow=none;endFill=0;" edge="1" parent="1" source="0mCc02Ch6F-0x3EUyyMh-34" target="0mCc02Ch6F-0x3EUyyMh-16">
          <mxGeometry relative="1" as="geometry" />
        </mxCell>
        <mxCell id="0mCc02Ch6F-0x3EUyyMh-34" value="Data iscrizione" style="ellipse;whiteSpace=wrap;html=1;aspect=fixed;fontSize=10;fontColor=default;" vertex="1" parent="1">
          <mxGeometry x="325" y="552" width="40" height="40" as="geometry" />
        </mxCell>
        <mxCell id="0mCc02Ch6F-0x3EUyyMh-36" value="(1,n)" style="text;html=1;align=center;verticalAlign=middle;resizable=0;points=[];autosize=1;strokeColor=none;fillColor=none;" vertex="1" parent="1">
          <mxGeometry x="229" y="502" width="43" height="26" as="geometry" />
        </mxCell>
        <mxCell id="0mCc02Ch6F-0x3EUyyMh-37" value="(0,n)" style="text;html=1;align=center;verticalAlign=middle;resizable=0;points=[];autosize=1;strokeColor=none;fillColor=none;" vertex="1" parent="1">
          <mxGeometry x="229" y="619" width="43" height="26" as="geometry" />
        </mxCell>
        <mxCell id="0mCc02Ch6F-0x3EUyyMh-40" value="(0&lt;span style=&quot;background-color: initial;&quot;&gt;,n)&lt;/span&gt;" style="text;html=1;align=center;verticalAlign=middle;resizable=0;points=[];autosize=1;strokeColor=none;fillColor=none;" vertex="1" parent="1">
          <mxGeometry x="95" y="672" width="43" height="26" as="geometry" />
        </mxCell>
        <mxCell id="0mCc02Ch6F-0x3EUyyMh-41" value="(1,n)" style="text;html=1;align=center;verticalAlign=middle;resizable=0;points=[];autosize=1;strokeColor=none;fillColor=none;" vertex="1" parent="1">
          <mxGeometry x="-229" y="616" width="43" height="26" as="geometry" />
        </mxCell>
        <mxCell id="0mCc02Ch6F-0x3EUyyMh-44" value="Sessione" style="strokeWidth=2;whiteSpace=wrap;html=1;align=center;fontSize=13;fontFamily=Helvetica;" vertex="1" parent="1">
          <mxGeometry x="-77" y="251" width="156" height="70" as="geometry" />
        </mxCell>
        <mxCell id="0mCc02Ch6F-0x3EUyyMh-46" style="edgeStyle=orthogonalEdgeStyle;rounded=0;orthogonalLoop=1;jettySize=auto;html=1;exitX=1;exitY=0.5;exitDx=0;exitDy=0;endArrow=none;endFill=0;" edge="1" parent="1" source="0mCc02Ch6F-0x3EUyyMh-45" target="0mCc02Ch6F-0x3EUyyMh-1">
          <mxGeometry relative="1" as="geometry" />
        </mxCell>
        <mxCell id="0mCc02Ch6F-0x3EUyyMh-48" style="edgeStyle=orthogonalEdgeStyle;rounded=0;orthogonalLoop=1;jettySize=auto;html=1;exitX=0;exitY=0.5;exitDx=0;exitDy=0;endArrow=none;endFill=0;" edge="1" parent="1" source="0mCc02Ch6F-0x3EUyyMh-45" target="0mCc02Ch6F-0x3EUyyMh-44">
          <mxGeometry relative="1" as="geometry" />
        </mxCell>
        <mxCell id="0mCc02Ch6F-0x3EUyyMh-45" value="É diviso in" style="shape=rhombus;strokeWidth=2;fontSize=13;perimeter=rhombusPerimeter;whiteSpace=wrap;html=1;align=center;" vertex="1" parent="1">
          <mxGeometry x="21" y="371" width="70" height="70" as="geometry" />
        </mxCell>
        <mxCell id="0mCc02Ch6F-0x3EUyyMh-49" value="(1,n)" style="text;html=1;align=center;verticalAlign=middle;resizable=0;points=[];autosize=1;strokeColor=none;fillColor=none;" vertex="1" parent="1">
          <mxGeometry x="87" y="380" width="43" height="26" as="geometry" />
        </mxCell>
        <mxCell id="0mCc02Ch6F-0x3EUyyMh-50" value="(1,1)" style="text;html=1;align=center;verticalAlign=middle;resizable=0;points=[];autosize=1;strokeColor=none;fillColor=none;" vertex="1" parent="1">
          <mxGeometry x="-14.5" y="410" width="43" height="26" as="geometry" />
        </mxCell>
        <mxCell id="0mCc02Ch6F-0x3EUyyMh-52" style="edgeStyle=orthogonalEdgeStyle;rounded=0;orthogonalLoop=1;jettySize=auto;html=1;exitX=0.5;exitY=1;exitDx=0;exitDy=0;endArrow=none;endFill=0;" edge="1" parent="1" source="0mCc02Ch6F-0x3EUyyMh-51" target="0mCc02Ch6F-0x3EUyyMh-44">
          <mxGeometry relative="1" as="geometry" />
        </mxCell>
        <mxCell id="0mCc02Ch6F-0x3EUyyMh-51" value="Data inizio" style="ellipse;whiteSpace=wrap;html=1;aspect=fixed;fontSize=10;fontColor=default;" vertex="1" parent="1">
          <mxGeometry x="-19" y="139" width="40" height="40" as="geometry" />
        </mxCell>
        <mxCell id="0mCc02Ch6F-0x3EUyyMh-56" style="edgeStyle=orthogonalEdgeStyle;rounded=0;orthogonalLoop=1;jettySize=auto;html=1;exitX=0.5;exitY=1;exitDx=0;exitDy=0;entryX=0.25;entryY=0;entryDx=0;entryDy=0;endArrow=none;endFill=0;" edge="1" parent="1" source="0mCc02Ch6F-0x3EUyyMh-55" target="0mCc02Ch6F-0x3EUyyMh-44">
          <mxGeometry relative="1" as="geometry" />
        </mxCell>
        <mxCell id="0mCc02Ch6F-0x3EUyyMh-55" value="Ora inizio" style="ellipse;whiteSpace=wrap;html=1;aspect=fixed;fontSize=10;fontColor=default;" vertex="1" parent="1">
          <mxGeometry x="-77" y="139" width="40" height="40" as="geometry" />
        </mxCell>
        <mxCell id="0mCc02Ch6F-0x3EUyyMh-62" style="edgeStyle=orthogonalEdgeStyle;rounded=0;orthogonalLoop=1;jettySize=auto;html=1;exitX=0.5;exitY=0;exitDx=0;exitDy=0;entryX=0.25;entryY=1;entryDx=0;entryDy=0;endArrow=none;endFill=0;" edge="1" parent="1" source="0mCc02Ch6F-0x3EUyyMh-61" target="0mCc02Ch6F-0x3EUyyMh-44">
          <mxGeometry relative="1" as="geometry" />
        </mxCell>
        <mxCell id="0mCc02Ch6F-0x3EUyyMh-61" value="Numero sessione" style="ellipse;whiteSpace=wrap;html=1;aspect=fixed;fontSize=10;fontColor=default;fontStyle=0" vertex="1" parent="1">
          <mxGeometry x="-59" y="390" width="40" height="40" as="geometry" />
        </mxCell>
        <mxCell id="0mCc02Ch6F-0x3EUyyMh-64" style="edgeStyle=orthogonalEdgeStyle;rounded=0;orthogonalLoop=1;jettySize=auto;html=1;exitX=1;exitY=0.5;exitDx=0;exitDy=0;endArrow=none;endFill=0;" edge="1" parent="1" source="0mCc02Ch6F-0x3EUyyMh-63">
          <mxGeometry relative="1" as="geometry">
            <mxPoint x="45.68965517241395" y="355.0344827586207" as="targetPoint" />
            <Array as="points">
              <mxPoint x="-97" y="355" />
            </Array>
          </mxGeometry>
        </mxCell>
        <mxCell id="0mCc02Ch6F-0x3EUyyMh-63" value="" style="ellipse;whiteSpace=wrap;html=1;aspect=fixed;fontSize=10;fontColor=default;fontStyle=0;fillColor=#030303;" vertex="1" parent="1">
          <mxGeometry x="-112" y="345" width="18" height="18" as="geometry" />
        </mxCell>
        <mxCell id="0mCc02Ch6F-0x3EUyyMh-66" value="Esibizione" style="strokeWidth=2;whiteSpace=wrap;html=1;align=center;fontSize=13;fontFamily=Helvetica;" vertex="1" parent="1">
          <mxGeometry x="-355" y="494" width="156" height="70" as="geometry" />
        </mxCell>
        <mxCell id="0mCc02Ch6F-0x3EUyyMh-68" style="edgeStyle=orthogonalEdgeStyle;rounded=0;orthogonalLoop=1;jettySize=auto;html=1;exitX=1;exitY=0.5;exitDx=0;exitDy=0;endArrow=none;endFill=0;" edge="1" parent="1" source="0mCc02Ch6F-0x3EUyyMh-67" target="0mCc02Ch6F-0x3EUyyMh-44">
          <mxGeometry relative="1" as="geometry" />
        </mxCell>
        <mxCell id="0mCc02Ch6F-0x3EUyyMh-69" style="edgeStyle=orthogonalEdgeStyle;rounded=0;orthogonalLoop=1;jettySize=auto;html=1;exitX=0;exitY=0.5;exitDx=0;exitDy=0;endArrow=none;endFill=0;" edge="1" parent="1" source="0mCc02Ch6F-0x3EUyyMh-67" target="0mCc02Ch6F-0x3EUyyMh-66">
          <mxGeometry relative="1" as="geometry" />
        </mxCell>
        <mxCell id="0mCc02Ch6F-0x3EUyyMh-67" value="Prevede" style="shape=rhombus;strokeWidth=2;fontSize=13;perimeter=rhombusPerimeter;whiteSpace=wrap;html=1;align=center;" vertex="1" parent="1">
          <mxGeometry x="-225" y="231" width="70" height="70" as="geometry" />
        </mxCell>
        <mxCell id="0mCc02Ch6F-0x3EUyyMh-70" value="(1,n)" style="text;html=1;align=center;verticalAlign=middle;resizable=0;points=[];autosize=1;strokeColor=none;fillColor=none;" vertex="1" parent="1">
          <mxGeometry x="-147" y="238" width="43" height="26" as="geometry" />
        </mxCell>
        <mxCell id="0mCc02Ch6F-0x3EUyyMh-71" value="(1,1)" style="text;html=1;align=center;verticalAlign=middle;resizable=0;points=[];autosize=1;strokeColor=none;fillColor=none;" vertex="1" parent="1">
          <mxGeometry x="-275" y="225" width="43" height="26" as="geometry" />
        </mxCell>
        <mxCell id="0mCc02Ch6F-0x3EUyyMh-73" style="edgeStyle=orthogonalEdgeStyle;rounded=0;orthogonalLoop=1;jettySize=auto;html=1;exitX=0.5;exitY=1;exitDx=0;exitDy=0;endArrow=none;endFill=0;entryX=0;entryY=0.5;entryDx=0;entryDy=0;" edge="1" parent="1" source="0mCc02Ch6F-0x3EUyyMh-72" target="0mCc02Ch6F-0x3EUyyMh-66">
          <mxGeometry relative="1" as="geometry" />
        </mxCell>
        <mxCell id="0mCc02Ch6F-0x3EUyyMh-72" value="Durata" style="ellipse;whiteSpace=wrap;html=1;aspect=fixed;fontSize=10;fontColor=default;" vertex="1" parent="1">
          <mxGeometry x="-444" y="454" width="40" height="40" as="geometry" />
        </mxCell>
        <mxCell id="0mCc02Ch6F-0x3EUyyMh-75" style="edgeStyle=orthogonalEdgeStyle;rounded=0;orthogonalLoop=1;jettySize=auto;html=1;exitX=0.5;exitY=1;exitDx=0;exitDy=0;entryX=0.75;entryY=0;entryDx=0;entryDy=0;endArrow=none;endFill=0;" edge="1" parent="1" source="0mCc02Ch6F-0x3EUyyMh-74" target="0mCc02Ch6F-0x3EUyyMh-66">
          <mxGeometry relative="1" as="geometry" />
        </mxCell>
        <mxCell id="0mCc02Ch6F-0x3EUyyMh-74" value="Numero esibizione" style="ellipse;whiteSpace=wrap;html=1;aspect=fixed;fontSize=10;fontColor=default;fontStyle=4" vertex="1" parent="1">
          <mxGeometry x="-239" y="397" width="40" height="40" as="geometry" />
        </mxCell>
        <mxCell id="0mCc02Ch6F-0x3EUyyMh-82" style="edgeStyle=orthogonalEdgeStyle;rounded=0;orthogonalLoop=1;jettySize=auto;html=1;exitX=0.5;exitY=0;exitDx=0;exitDy=0;endArrow=none;endFill=0;" edge="1" parent="1" source="0mCc02Ch6F-0x3EUyyMh-81" target="0mCc02Ch6F-0x3EUyyMh-29">
          <mxGeometry relative="1" as="geometry" />
        </mxCell>
        <mxCell id="0mCc02Ch6F-0x3EUyyMh-81" value="Strumento" style="ellipse;whiteSpace=wrap;html=1;aspect=fixed;fontSize=10;fontColor=default;" vertex="1" parent="1">
          <mxGeometry x="-139" y="745" width="40" height="40" as="geometry" />
        </mxCell>
        <mxCell id="0mCc02Ch6F-0x3EUyyMh-84" style="edgeStyle=orthogonalEdgeStyle;rounded=0;orthogonalLoop=1;jettySize=auto;html=1;exitX=0.5;exitY=1;exitDx=0;exitDy=0;entryX=0.25;entryY=0;entryDx=0;entryDy=0;endArrow=none;endFill=0;" edge="1" parent="1" source="0mCc02Ch6F-0x3EUyyMh-83" target="0mCc02Ch6F-0x3EUyyMh-66">
          <mxGeometry relative="1" as="geometry" />
        </mxCell>
        <mxCell id="0mCc02Ch6F-0x3EUyyMh-83" value="Ora" style="ellipse;whiteSpace=wrap;html=1;aspect=fixed;fontSize=10;dashed=1;" vertex="1" parent="1">
          <mxGeometry x="-368" y="391" width="44" height="44" as="geometry" />
        </mxCell>
        <mxCell id="0mCc02Ch6F-0x3EUyyMh-87" style="edgeStyle=orthogonalEdgeStyle;rounded=0;orthogonalLoop=1;jettySize=auto;html=1;exitX=1;exitY=0.5;exitDx=0;exitDy=0;entryX=0;entryY=0.5;entryDx=0;entryDy=0;endArrow=none;endFill=0;" edge="1" parent="1" source="0mCc02Ch6F-0x3EUyyMh-85" target="0mCc02Ch6F-0x3EUyyMh-86">
          <mxGeometry relative="1" as="geometry" />
        </mxCell>
        <mxCell id="0mCc02Ch6F-0x3EUyyMh-85" value="Opera" style="strokeWidth=2;whiteSpace=wrap;html=1;align=center;fontSize=13;fontFamily=Helvetica;" vertex="1" parent="1">
          <mxGeometry x="-826" y="559" width="156" height="70" as="geometry" />
        </mxCell>
        <mxCell id="0mCc02Ch6F-0x3EUyyMh-88" style="edgeStyle=orthogonalEdgeStyle;rounded=0;orthogonalLoop=1;jettySize=auto;html=1;exitX=1;exitY=0.5;exitDx=0;exitDy=0;entryX=0.25;entryY=1;entryDx=0;entryDy=0;endArrow=none;endFill=0;" edge="1" parent="1" source="0mCc02Ch6F-0x3EUyyMh-86" target="0mCc02Ch6F-0x3EUyyMh-66">
          <mxGeometry relative="1" as="geometry" />
        </mxCell>
        <mxCell id="0mCc02Ch6F-0x3EUyyMh-86" value="É suonata" style="shape=rhombus;strokeWidth=2;fontSize=13;perimeter=rhombusPerimeter;whiteSpace=wrap;html=1;align=center;" vertex="1" parent="1">
          <mxGeometry x="-565" y="559" width="70" height="70" as="geometry" />
        </mxCell>
        <mxCell id="0mCc02Ch6F-0x3EUyyMh-90" style="edgeStyle=orthogonalEdgeStyle;rounded=0;orthogonalLoop=1;jettySize=auto;html=1;exitX=0.5;exitY=1;exitDx=0;exitDy=0;entryX=0.25;entryY=0;entryDx=0;entryDy=0;endArrow=none;endFill=0;" edge="1" parent="1" source="0mCc02Ch6F-0x3EUyyMh-89" target="0mCc02Ch6F-0x3EUyyMh-85">
          <mxGeometry relative="1" as="geometry" />
        </mxCell>
        <mxCell id="0mCc02Ch6F-0x3EUyyMh-89" value="Codice univoco" style="ellipse;whiteSpace=wrap;html=1;aspect=fixed;fontSize=10;fontColor=default;fontStyle=4" vertex="1" parent="1">
          <mxGeometry x="-814" y="456" width="40" height="40" as="geometry" />
        </mxCell>
        <mxCell id="0mCc02Ch6F-0x3EUyyMh-95" style="edgeStyle=orthogonalEdgeStyle;rounded=0;orthogonalLoop=1;jettySize=auto;html=1;exitX=0.5;exitY=1;exitDx=0;exitDy=0;endArrow=none;endFill=0;" edge="1" parent="1" source="0mCc02Ch6F-0x3EUyyMh-91" target="0mCc02Ch6F-0x3EUyyMh-85">
          <mxGeometry relative="1" as="geometry" />
        </mxCell>
        <mxCell id="0mCc02Ch6F-0x3EUyyMh-91" value="Titolo" style="ellipse;whiteSpace=wrap;html=1;aspect=fixed;fontSize=10;fontColor=default;fontStyle=0" vertex="1" parent="1">
          <mxGeometry x="-749" y="465" width="40" height="40" as="geometry" />
        </mxCell>
        <mxCell id="0mCc02Ch6F-0x3EUyyMh-96" style="edgeStyle=orthogonalEdgeStyle;rounded=0;orthogonalLoop=1;jettySize=auto;html=1;exitX=0.5;exitY=1;exitDx=0;exitDy=0;entryX=0.75;entryY=0;entryDx=0;entryDy=0;endArrow=none;endFill=0;" edge="1" parent="1" source="0mCc02Ch6F-0x3EUyyMh-92" target="0mCc02Ch6F-0x3EUyyMh-85">
          <mxGeometry relative="1" as="geometry" />
        </mxCell>
        <mxCell id="0mCc02Ch6F-0x3EUyyMh-92" value="Compositore" style="ellipse;whiteSpace=wrap;html=1;aspect=fixed;fontSize=10;fontColor=default;fontStyle=0" vertex="1" parent="1">
          <mxGeometry x="-682" y="465" width="40" height="40" as="geometry" />
        </mxCell>
        <mxCell id="0mCc02Ch6F-0x3EUyyMh-94" style="edgeStyle=orthogonalEdgeStyle;rounded=0;orthogonalLoop=1;jettySize=auto;html=1;exitX=1;exitY=0.5;exitDx=0;exitDy=0;endArrow=none;endFill=0;" edge="1" parent="1" source="0mCc02Ch6F-0x3EUyyMh-93" target="0mCc02Ch6F-0x3EUyyMh-85">
          <mxGeometry relative="1" as="geometry" />
        </mxCell>
        <mxCell id="0mCc02Ch6F-0x3EUyyMh-97" value="(0,1)" style="edgeLabel;html=1;align=center;verticalAlign=middle;resizable=0;points=[];" vertex="1" connectable="0" parent="0mCc02Ch6F-0x3EUyyMh-94">
          <mxGeometry x="-0.6702" y="2" relative="1" as="geometry">
            <mxPoint x="2" y="-8" as="offset" />
          </mxGeometry>
        </mxCell>
        <mxCell id="0mCc02Ch6F-0x3EUyyMh-93" value="Anno" style="ellipse;whiteSpace=wrap;html=1;aspect=fixed;fontSize=10;fontColor=default;fontStyle=0" vertex="1" parent="1">
          <mxGeometry x="-957" y="519" width="40" height="40" as="geometry" />
        </mxCell>
        <mxCell id="0mCc02Ch6F-0x3EUyyMh-98" value="&lt;font style=&quot;font-size: 12px;&quot;&gt;&lt;u style=&quot;&quot;&gt;Vincoli&lt;/u&gt;:&lt;/font&gt;&lt;div style=&quot;&quot;&gt;&lt;font style=&quot;font-size: 12px;&quot;&gt;&lt;br&gt;&lt;/font&gt;&lt;/div&gt;&lt;div style=&quot;&quot;&gt;&lt;ul&gt;&lt;li&gt;&lt;font style=&quot;font-size: 12px;&quot;&gt;uno studente può esibirsi solo in sessioni di concorsi cui è iscritto;&lt;/font&gt;&lt;/li&gt;&lt;li&gt;&lt;font style=&quot;font-size: 12px;&quot;&gt;uno studente non può esibirsi in sessioni concomitanti di concorsi diversi;&lt;/font&gt;&lt;/li&gt;&lt;li&gt;&lt;font style=&quot;font-size: 12px;&quot;&gt;uno studente può esibirsi solo con strumenti musicali che sa suonare;&lt;/font&gt;&lt;/li&gt;&lt;li&gt;&lt;font style=&quot;font-size: 12px;&quot;&gt;la data di un’iscrizione a un concorso dev’essere anteriore alla data d’inizio del concorso;&lt;/font&gt;&lt;/li&gt;&lt;li&gt;&lt;font style=&quot;font-size: 12px;&quot;&gt;la data di una sessione dev’essere all’interno della durata del concorso;&lt;/font&gt;&lt;/li&gt;&lt;li&gt;&lt;font style=&quot;font-size: 12px;&quot;&gt;il numero d’ordine (o l’orario) di un’esibizione è un semi-identificatore alternativo per il tipo&amp;nbsp;&lt;/font&gt;d’entità Esibizione (ossia, è possibile identificare univocamente un’esibizione specificando la sessione di concorso corrispondente e il numero d’ordine dell’esibizione);&lt;/li&gt;&lt;li&gt;&lt;font style=&quot;font-size: 12px;&quot;&gt;l’orario di un’esibizione può essere calcolato dal numero d’ordine e dalla durata dell’esibi&lt;/font&gt;zione, nota l’ora d’inizio della sessione corrispondente.&lt;/li&gt;&lt;/ul&gt;&lt;/div&gt;" style="text;html=1;align=left;verticalAlign=middle;resizable=0;points=[];autosize=1;strokeColor=none;fillColor=none;" vertex="1" parent="1">
          <mxGeometry x="521" y="735" width="1420" height="166" as="geometry" />
        </mxCell>
      </root>
    </mxGraphModel>
  </diagram>
  <diagram id="YDlsgX1jJ6-yQHmMI-rR" name="Proteine">
    <mxGraphModel dx="3034" dy="773" grid="0" gridSize="10" guides="1" tooltips="1" connect="1" arrows="0" fold="1" page="0" pageScale="1" pageWidth="827" pageHeight="1169" math="0" shadow="0">
      <root>
        <mxCell id="0" />
        <mxCell id="1" parent="0" />
        <mxCell id="hLZzUyZ3R9jghaq2go_g-78" value="Proteina" style="strokeWidth=2;whiteSpace=wrap;html=1;align=center;fontSize=13;fontFamily=Helvetica;rounded=0;" parent="1" vertex="1">
          <mxGeometry x="-503" y="516" width="82" height="36" as="geometry" />
        </mxCell>
        <mxCell id="hLZzUyZ3R9jghaq2go_g-81" value="" style="rounded=0;orthogonalLoop=1;jettySize=auto;html=1;endArrow=none;endFill=0;" parent="1" source="hLZzUyZ3R9jghaq2go_g-79" target="hLZzUyZ3R9jghaq2go_g-78" edge="1">
          <mxGeometry relative="1" as="geometry" />
        </mxCell>
        <mxCell id="hLZzUyZ3R9jghaq2go_g-79" value="" style="ellipse;whiteSpace=wrap;html=1;aspect=fixed;fontSize=10;fontColor=default;fontStyle=0;fillColor=#030303;rounded=0;" parent="1" vertex="1">
          <mxGeometry x="-491.5" y="442" width="17" height="17" as="geometry" />
        </mxCell>
        <mxCell id="hLZzUyZ3R9jghaq2go_g-80" value="Codice&amp;nbsp;&lt;div&gt;univoco&lt;/div&gt;" style="text;html=1;align=center;verticalAlign=middle;resizable=0;points=[];autosize=1;strokeColor=none;fillColor=none;rounded=0;" parent="1" vertex="1">
          <mxGeometry x="-511" y="406" width="59" height="41" as="geometry" />
        </mxCell>
        <mxCell id="hLZzUyZ3R9jghaq2go_g-82" value="" style="rounded=0;orthogonalLoop=1;jettySize=auto;html=1;endArrow=none;endFill=0;" parent="1" source="hLZzUyZ3R9jghaq2go_g-83" edge="1">
          <mxGeometry relative="1" as="geometry">
            <mxPoint x="-438.5" y="516" as="targetPoint" />
          </mxGeometry>
        </mxCell>
        <mxCell id="hLZzUyZ3R9jghaq2go_g-83" value="" style="ellipse;whiteSpace=wrap;html=1;aspect=fixed;fontSize=10;fontColor=default;fontStyle=0;fillColor=#030303;rounded=0;" parent="1" vertex="1">
          <mxGeometry x="-447" y="442" width="17" height="17" as="geometry" />
        </mxCell>
        <mxCell id="hLZzUyZ3R9jghaq2go_g-84" value="Nome" style="text;html=1;align=center;verticalAlign=middle;resizable=0;points=[];autosize=1;strokeColor=none;fillColor=none;rounded=0;" parent="1" vertex="1">
          <mxGeometry x="-463.5" y="416" width="50" height="26" as="geometry" />
        </mxCell>
        <mxCell id="hLZzUyZ3R9jghaq2go_g-85" value="" style="ellipse;whiteSpace=wrap;html=1;aspect=fixed;fontSize=10;fontColor=default;fontStyle=0;rounded=0;" parent="1" vertex="1">
          <mxGeometry x="-550" y="449.5" width="17" height="17" as="geometry" />
        </mxCell>
        <mxCell id="hLZzUyZ3R9jghaq2go_g-86" value="peso&amp;nbsp;&lt;div&gt;molecolare&lt;/div&gt;" style="text;html=1;align=center;verticalAlign=middle;resizable=0;points=[];autosize=1;strokeColor=none;fillColor=none;rounded=0;" parent="1" vertex="1">
          <mxGeometry x="-580" y="406" width="77" height="41" as="geometry" />
        </mxCell>
        <mxCell id="hLZzUyZ3R9jghaq2go_g-87" value="" style="ellipse;whiteSpace=wrap;html=1;aspect=fixed;fontSize=10;fontColor=default;fontStyle=0;rounded=0;" parent="1" vertex="1">
          <mxGeometry x="-391" y="452" width="17" height="17" as="geometry" />
        </mxCell>
        <mxCell id="hLZzUyZ3R9jghaq2go_g-88" value="funzione&lt;div&gt;biologica&lt;/div&gt;" style="text;html=1;align=center;verticalAlign=middle;resizable=0;points=[];autosize=1;strokeColor=none;fillColor=none;rounded=0;" parent="1" vertex="1">
          <mxGeometry x="-415" y="408.5" width="65" height="41" as="geometry" />
        </mxCell>
        <mxCell id="hLZzUyZ3R9jghaq2go_g-89" style="rounded=0;orthogonalLoop=1;jettySize=auto;html=1;exitX=0.5;exitY=1;exitDx=0;exitDy=0;entryX=0.899;entryY=0.044;entryDx=0;entryDy=0;entryPerimeter=0;endArrow=none;endFill=0;" parent="1" source="hLZzUyZ3R9jghaq2go_g-87" target="hLZzUyZ3R9jghaq2go_g-78" edge="1">
          <mxGeometry relative="1" as="geometry" />
        </mxCell>
        <mxCell id="hLZzUyZ3R9jghaq2go_g-90" value="(0,1)" style="text;html=1;align=center;verticalAlign=middle;resizable=0;points=[];autosize=1;strokeColor=none;fillColor=none;rounded=0;" parent="1" vertex="1">
          <mxGeometry x="-388" y="469" width="43" height="26" as="geometry" />
        </mxCell>
        <mxCell id="hLZzUyZ3R9jghaq2go_g-91" style="rounded=0;orthogonalLoop=1;jettySize=auto;html=1;exitX=1;exitY=1;exitDx=0;exitDy=0;entryX=0.109;entryY=-0.022;entryDx=0;entryDy=0;entryPerimeter=0;endArrow=none;endFill=0;" parent="1" source="hLZzUyZ3R9jghaq2go_g-85" target="hLZzUyZ3R9jghaq2go_g-78" edge="1">
          <mxGeometry relative="1" as="geometry" />
        </mxCell>
        <mxCell id="hLZzUyZ3R9jghaq2go_g-94" style="rounded=0;orthogonalLoop=1;jettySize=auto;html=1;exitX=0;exitY=0.5;exitDx=0;exitDy=0;entryX=1;entryY=0.5;entryDx=0;entryDy=0;endArrow=none;endFill=0;" parent="1" source="hLZzUyZ3R9jghaq2go_g-92" target="hLZzUyZ3R9jghaq2go_g-78" edge="1">
          <mxGeometry relative="1" as="geometry" />
        </mxCell>
        <mxCell id="hLZzUyZ3R9jghaq2go_g-92" value="" style="ellipse;whiteSpace=wrap;html=1;aspect=fixed;fontSize=10;fontColor=default;fontStyle=0;rounded=0;" parent="1" vertex="1">
          <mxGeometry x="-353" y="520" width="17" height="17" as="geometry" />
        </mxCell>
        <mxCell id="hLZzUyZ3R9jghaq2go_g-93" value="organismo di&amp;nbsp;&lt;div&gt;appartenenza&lt;/div&gt;" style="text;html=1;align=center;verticalAlign=middle;resizable=0;points=[];autosize=1;strokeColor=none;fillColor=none;rounded=0;" parent="1" vertex="1">
          <mxGeometry x="-334" y="508" width="91" height="41" as="geometry" />
        </mxCell>
        <mxCell id="hLZzUyZ3R9jghaq2go_g-147" style="edgeStyle=none;rounded=0;orthogonalLoop=1;jettySize=auto;html=1;exitX=0.5;exitY=1;exitDx=0;exitDy=0;strokeColor=default;align=center;verticalAlign=middle;fontFamily=Helvetica;fontSize=11;fontColor=default;labelBackgroundColor=default;endArrow=none;endFill=0;" parent="1" source="hLZzUyZ3R9jghaq2go_g-95" target="hLZzUyZ3R9jghaq2go_g-146" edge="1">
          <mxGeometry relative="1" as="geometry" />
        </mxCell>
        <mxCell id="hLZzUyZ3R9jghaq2go_g-173" style="edgeStyle=none;rounded=0;orthogonalLoop=1;jettySize=auto;html=1;exitX=0;exitY=1;exitDx=0;exitDy=0;strokeColor=default;align=center;verticalAlign=middle;fontFamily=Helvetica;fontSize=11;fontColor=default;labelBackgroundColor=default;endArrow=none;endFill=0;" parent="1" source="hLZzUyZ3R9jghaq2go_g-95" target="hLZzUyZ3R9jghaq2go_g-172" edge="1">
          <mxGeometry relative="1" as="geometry" />
        </mxCell>
        <mxCell id="hLZzUyZ3R9jghaq2go_g-95" value="Struttura&lt;div&gt;Tridimensional&lt;/div&gt;" style="strokeWidth=2;whiteSpace=wrap;html=1;align=center;fontSize=13;fontFamily=Helvetica;rounded=0;" parent="1" vertex="1">
          <mxGeometry x="-875" y="313" width="111" height="36" as="geometry" />
        </mxCell>
        <mxCell id="hLZzUyZ3R9jghaq2go_g-97" style="edgeStyle=orthogonalEdgeStyle;rounded=0;orthogonalLoop=1;jettySize=auto;html=1;exitX=0.5;exitY=1;exitDx=0;exitDy=0;endArrow=none;endFill=0;" parent="1" source="hLZzUyZ3R9jghaq2go_g-96" target="hLZzUyZ3R9jghaq2go_g-78" edge="1">
          <mxGeometry relative="1" as="geometry">
            <mxPoint x="-601" y="533.9999999999998" as="sourcePoint" />
            <Array as="points">
              <mxPoint x="-620" y="534" />
            </Array>
          </mxGeometry>
        </mxCell>
        <mxCell id="hLZzUyZ3R9jghaq2go_g-98" style="edgeStyle=orthogonalEdgeStyle;rounded=0;orthogonalLoop=1;jettySize=auto;html=1;exitX=0;exitY=0.5;exitDx=0;exitDy=0;endArrow=none;endFill=0;" parent="1" source="hLZzUyZ3R9jghaq2go_g-96" target="hLZzUyZ3R9jghaq2go_g-95" edge="1">
          <mxGeometry relative="1" as="geometry" />
        </mxCell>
        <mxCell id="hLZzUyZ3R9jghaq2go_g-96" value="Assume" style="shape=rhombus;strokeWidth=2;fontSize=13;perimeter=rhombusPerimeter;whiteSpace=wrap;html=1;align=center;rounded=0;" parent="1" vertex="1">
          <mxGeometry x="-679" y="307.5" width="119" height="47" as="geometry" />
        </mxCell>
        <mxCell id="hLZzUyZ3R9jghaq2go_g-99" value="(0,n)" style="text;html=1;align=center;verticalAlign=middle;resizable=0;points=[];autosize=1;strokeColor=none;fillColor=none;rounded=0;" parent="1" vertex="1">
          <mxGeometry x="-581" y="510" width="43" height="26" as="geometry" />
        </mxCell>
        <mxCell id="hLZzUyZ3R9jghaq2go_g-100" value="(1,1)" style="text;html=1;align=center;verticalAlign=middle;resizable=0;points=[];autosize=1;strokeColor=none;fillColor=none;rounded=0;" parent="1" vertex="1">
          <mxGeometry x="-737" y="307" width="43" height="26" as="geometry" />
        </mxCell>
        <mxCell id="hLZzUyZ3R9jghaq2go_g-109" style="rounded=0;orthogonalLoop=1;jettySize=auto;html=1;exitX=0.5;exitY=1;exitDx=0;exitDy=0;entryX=0.845;entryY=0.003;entryDx=0;entryDy=0;endArrow=none;endFill=0;entryPerimeter=0;" parent="1" source="hLZzUyZ3R9jghaq2go_g-103" target="hLZzUyZ3R9jghaq2go_g-95" edge="1">
          <mxGeometry relative="1" as="geometry" />
        </mxCell>
        <mxCell id="hLZzUyZ3R9jghaq2go_g-103" value="" style="ellipse;whiteSpace=wrap;html=1;aspect=fixed;fontSize=10;fontColor=default;fontStyle=0;rounded=0;" parent="1" vertex="1">
          <mxGeometry x="-788" y="254" width="17" height="17" as="geometry" />
        </mxCell>
        <mxCell id="hLZzUyZ3R9jghaq2go_g-104" value="numero&lt;div&gt;di versione&lt;/div&gt;" style="text;html=1;align=center;verticalAlign=middle;resizable=0;points=[];autosize=1;strokeColor=none;fillColor=none;rounded=0;" parent="1" vertex="1">
          <mxGeometry x="-814" y="213" width="76" height="41" as="geometry" />
        </mxCell>
        <mxCell id="hLZzUyZ3R9jghaq2go_g-110" value="Laboratorio" style="strokeWidth=2;whiteSpace=wrap;html=1;align=center;fontSize=13;fontFamily=Helvetica;rounded=0;" parent="1" vertex="1">
          <mxGeometry x="-1200" y="313" width="111" height="36" as="geometry" />
        </mxCell>
        <mxCell id="hLZzUyZ3R9jghaq2go_g-112" style="edgeStyle=orthogonalEdgeStyle;rounded=0;orthogonalLoop=1;jettySize=auto;html=1;exitX=0;exitY=0.5;exitDx=0;exitDy=0;endArrow=none;endFill=0;" parent="1" source="hLZzUyZ3R9jghaq2go_g-111" target="hLZzUyZ3R9jghaq2go_g-110" edge="1">
          <mxGeometry relative="1" as="geometry" />
        </mxCell>
        <mxCell id="hLZzUyZ3R9jghaq2go_g-113" style="edgeStyle=orthogonalEdgeStyle;rounded=0;orthogonalLoop=1;jettySize=auto;html=1;exitX=1;exitY=0.5;exitDx=0;exitDy=0;endArrow=none;endFill=0;" parent="1" source="hLZzUyZ3R9jghaq2go_g-111" target="hLZzUyZ3R9jghaq2go_g-95" edge="1">
          <mxGeometry relative="1" as="geometry" />
        </mxCell>
        <mxCell id="hLZzUyZ3R9jghaq2go_g-111" value="Sottomette" style="shape=rhombus;strokeWidth=2;fontSize=13;perimeter=rhombusPerimeter;whiteSpace=wrap;html=1;align=center;rounded=0;" parent="1" vertex="1">
          <mxGeometry x="-1046" y="307.5" width="119" height="47" as="geometry" />
        </mxCell>
        <mxCell id="hLZzUyZ3R9jghaq2go_g-116" value="" style="rounded=0;orthogonalLoop=1;jettySize=auto;html=1;endArrow=none;endFill=0;entryX=0.785;entryY=-0.028;entryDx=0;entryDy=0;entryPerimeter=0;" parent="1" source="hLZzUyZ3R9jghaq2go_g-114" target="hLZzUyZ3R9jghaq2go_g-110" edge="1">
          <mxGeometry relative="1" as="geometry" />
        </mxCell>
        <mxCell id="hLZzUyZ3R9jghaq2go_g-114" value="" style="ellipse;whiteSpace=wrap;html=1;aspect=fixed;fontSize=10;fontColor=default;fontStyle=0;fillColor=#030303;rounded=0;" parent="1" vertex="1">
          <mxGeometry x="-1122" y="244" width="17" height="17" as="geometry" />
        </mxCell>
        <mxCell id="hLZzUyZ3R9jghaq2go_g-115" value="Nome" style="text;html=1;align=center;verticalAlign=middle;resizable=0;points=[];autosize=1;strokeColor=none;fillColor=none;rounded=0;" parent="1" vertex="1">
          <mxGeometry x="-1138.5" y="210.5" width="50" height="26" as="geometry" />
        </mxCell>
        <mxCell id="hLZzUyZ3R9jghaq2go_g-118" value="" style="edgeStyle=orthogonalEdgeStyle;rounded=0;orthogonalLoop=1;jettySize=auto;html=1;endArrow=none;endFill=0;" parent="1" source="hLZzUyZ3R9jghaq2go_g-117" target="hLZzUyZ3R9jghaq2go_g-110" edge="1">
          <mxGeometry relative="1" as="geometry">
            <Array as="points">
              <mxPoint x="-1191" y="299" />
              <mxPoint x="-1191" y="299" />
            </Array>
          </mxGeometry>
        </mxCell>
        <mxCell id="hLZzUyZ3R9jghaq2go_g-117" value="" style="ellipse;whiteSpace=wrap;html=1;aspect=fixed;fontSize=10;fontColor=default;fontStyle=0;rounded=0;" parent="1" vertex="1">
          <mxGeometry x="-1200" y="249" width="17" height="17" as="geometry" />
        </mxCell>
        <mxCell id="hLZzUyZ3R9jghaq2go_g-119" value="Indirizzo" style="text;html=1;align=center;verticalAlign=middle;resizable=0;points=[];autosize=1;strokeColor=none;fillColor=none;rounded=0;" parent="1" vertex="1">
          <mxGeometry x="-1263" y="256" width="63" height="26" as="geometry" />
        </mxCell>
        <mxCell id="hLZzUyZ3R9jghaq2go_g-121" style="rounded=0;orthogonalLoop=1;jettySize=auto;html=1;exitX=1;exitY=1;exitDx=0;exitDy=0;endArrow=none;endFill=0;" parent="1" source="hLZzUyZ3R9jghaq2go_g-120" target="hLZzUyZ3R9jghaq2go_g-117" edge="1">
          <mxGeometry relative="1" as="geometry" />
        </mxCell>
        <mxCell id="hLZzUyZ3R9jghaq2go_g-120" value="" style="ellipse;whiteSpace=wrap;html=1;aspect=fixed;fontSize=10;fontColor=default;fontStyle=0;rounded=0;" parent="1" vertex="1">
          <mxGeometry x="-1246" y="188.5" width="17" height="17" as="geometry" />
        </mxCell>
        <mxCell id="hLZzUyZ3R9jghaq2go_g-122" value="via" style="text;html=1;align=center;verticalAlign=middle;resizable=0;points=[];autosize=1;strokeColor=none;fillColor=none;rounded=0;" parent="1" vertex="1">
          <mxGeometry x="-1267" y="161" width="33" height="26" as="geometry" />
        </mxCell>
        <mxCell id="hLZzUyZ3R9jghaq2go_g-130" style="rounded=0;orthogonalLoop=1;jettySize=auto;html=1;exitX=0.5;exitY=1;exitDx=0;exitDy=0;endArrow=none;endFill=0;" parent="1" source="hLZzUyZ3R9jghaq2go_g-123" target="hLZzUyZ3R9jghaq2go_g-117" edge="1">
          <mxGeometry relative="1" as="geometry" />
        </mxCell>
        <mxCell id="hLZzUyZ3R9jghaq2go_g-123" value="" style="ellipse;whiteSpace=wrap;html=1;aspect=fixed;fontSize=10;fontColor=default;fontStyle=0;rounded=0;" parent="1" vertex="1">
          <mxGeometry x="-1211" y="187" width="17" height="17" as="geometry" />
        </mxCell>
        <mxCell id="hLZzUyZ3R9jghaq2go_g-124" value="civico" style="text;html=1;align=center;verticalAlign=middle;resizable=0;points=[];autosize=1;strokeColor=none;fillColor=none;rounded=0;" parent="1" vertex="1">
          <mxGeometry x="-1228" y="158" width="48" height="26" as="geometry" />
        </mxCell>
        <mxCell id="hLZzUyZ3R9jghaq2go_g-131" style="edgeStyle=none;rounded=0;orthogonalLoop=1;jettySize=auto;html=1;exitX=0.5;exitY=1;exitDx=0;exitDy=0;entryX=1;entryY=0;entryDx=0;entryDy=0;endArrow=none;endFill=0;" parent="1" source="hLZzUyZ3R9jghaq2go_g-125" target="hLZzUyZ3R9jghaq2go_g-117" edge="1">
          <mxGeometry relative="1" as="geometry" />
        </mxCell>
        <mxCell id="hLZzUyZ3R9jghaq2go_g-125" value="" style="ellipse;whiteSpace=wrap;html=1;aspect=fixed;fontSize=10;fontColor=default;fontStyle=0;rounded=0;" parent="1" vertex="1">
          <mxGeometry x="-1172" y="187" width="17" height="17" as="geometry" />
        </mxCell>
        <mxCell id="hLZzUyZ3R9jghaq2go_g-126" value="indirizzo" style="text;html=1;align=center;verticalAlign=middle;resizable=0;points=[];autosize=1;strokeColor=none;fillColor=none;rounded=0;" parent="1" vertex="1">
          <mxGeometry x="-1184" y="158" width="62" height="26" as="geometry" />
        </mxCell>
        <mxCell id="hLZzUyZ3R9jghaq2go_g-129" style="rounded=0;orthogonalLoop=1;jettySize=auto;html=1;exitX=1;exitY=1;exitDx=0;exitDy=0;entryX=0;entryY=0.5;entryDx=0;entryDy=0;endArrow=none;endFill=0;" parent="1" source="hLZzUyZ3R9jghaq2go_g-127" target="hLZzUyZ3R9jghaq2go_g-117" edge="1">
          <mxGeometry relative="1" as="geometry" />
        </mxCell>
        <mxCell id="hLZzUyZ3R9jghaq2go_g-127" value="" style="ellipse;whiteSpace=wrap;html=1;aspect=fixed;fontSize=10;fontColor=default;fontStyle=0;rounded=0;" parent="1" vertex="1">
          <mxGeometry x="-1271" y="227" width="17" height="17" as="geometry" />
        </mxCell>
        <mxCell id="hLZzUyZ3R9jghaq2go_g-128" value="cap" style="text;html=1;align=center;verticalAlign=middle;resizable=0;points=[];autosize=1;strokeColor=none;fillColor=none;rounded=0;" parent="1" vertex="1">
          <mxGeometry x="-1308" y="210.5" width="37" height="26" as="geometry" />
        </mxCell>
        <mxCell id="hLZzUyZ3R9jghaq2go_g-134" style="edgeStyle=none;rounded=0;orthogonalLoop=1;jettySize=auto;html=1;exitX=1;exitY=0.5;exitDx=0;exitDy=0;endArrow=none;endFill=0;" parent="1" source="hLZzUyZ3R9jghaq2go_g-132" target="hLZzUyZ3R9jghaq2go_g-110" edge="1">
          <mxGeometry relative="1" as="geometry" />
        </mxCell>
        <mxCell id="hLZzUyZ3R9jghaq2go_g-132" value="" style="ellipse;whiteSpace=wrap;html=1;aspect=fixed;fontSize=10;fontColor=default;fontStyle=0;rounded=0;" parent="1" vertex="1">
          <mxGeometry x="-1267" y="320" width="17" height="17" as="geometry" />
        </mxCell>
        <mxCell id="hLZzUyZ3R9jghaq2go_g-135" value="data di&lt;div&gt;registrazione&lt;/div&gt;" style="text;html=1;align=center;verticalAlign=middle;resizable=0;points=[];autosize=1;strokeColor=none;fillColor=none;fontFamily=Helvetica;fontSize=11;fontColor=default;labelBackgroundColor=default;" parent="1" vertex="1">
          <mxGeometry x="-1352" y="309.5" width="81" height="38" as="geometry" />
        </mxCell>
        <mxCell id="hLZzUyZ3R9jghaq2go_g-136" value="(n,n)" style="text;html=1;align=center;verticalAlign=middle;resizable=0;points=[];autosize=1;strokeColor=none;fillColor=none;fontFamily=Helvetica;fontSize=11;fontColor=default;labelBackgroundColor=default;" parent="1" vertex="1">
          <mxGeometry x="-1081" y="308" width="41" height="25" as="geometry" />
        </mxCell>
        <mxCell id="hLZzUyZ3R9jghaq2go_g-137" value="(1,n)" style="text;html=1;align=center;verticalAlign=middle;resizable=0;points=[];autosize=1;strokeColor=none;fillColor=none;fontFamily=Helvetica;fontSize=11;fontColor=default;labelBackgroundColor=default;" parent="1" vertex="1">
          <mxGeometry x="-931" y="307" width="41" height="25" as="geometry" />
        </mxCell>
        <mxCell id="hLZzUyZ3R9jghaq2go_g-138" style="rounded=0;orthogonalLoop=1;jettySize=auto;html=1;exitX=0.5;exitY=1;exitDx=0;exitDy=0;entryX=0.5;entryY=0;entryDx=0;entryDy=0;endArrow=none;endFill=0;" parent="1" source="hLZzUyZ3R9jghaq2go_g-139" target="hLZzUyZ3R9jghaq2go_g-111" edge="1">
          <mxGeometry relative="1" as="geometry">
            <mxPoint x="-1122" y="299.75" as="targetPoint" />
          </mxGeometry>
        </mxCell>
        <mxCell id="hLZzUyZ3R9jghaq2go_g-139" value="" style="ellipse;whiteSpace=wrap;html=1;aspect=fixed;fontSize=10;fontColor=default;fontStyle=0;rounded=0;" parent="1" vertex="1">
          <mxGeometry x="-995" y="259.5" width="17" height="17" as="geometry" />
        </mxCell>
        <mxCell id="hLZzUyZ3R9jghaq2go_g-140" value="data&lt;div&gt;sottomissione&lt;/div&gt;" style="text;html=1;align=center;verticalAlign=middle;resizable=0;points=[];autosize=1;strokeColor=none;fillColor=none;rounded=0;" parent="1" vertex="1">
          <mxGeometry x="-1032" y="218.5" width="91" height="41" as="geometry" />
        </mxCell>
        <mxCell id="hLZzUyZ3R9jghaq2go_g-141" style="rounded=0;orthogonalLoop=1;jettySize=auto;html=1;exitX=0.5;exitY=1;exitDx=0;exitDy=0;entryX=0.845;entryY=0.003;entryDx=0;entryDy=0;endArrow=none;endFill=0;entryPerimeter=0;" parent="1" source="hLZzUyZ3R9jghaq2go_g-142" edge="1">
          <mxGeometry relative="1" as="geometry">
            <mxPoint x="-863" y="312.5" as="targetPoint" />
          </mxGeometry>
        </mxCell>
        <mxCell id="hLZzUyZ3R9jghaq2go_g-142" value="" style="ellipse;whiteSpace=wrap;html=1;aspect=fixed;fontSize=10;fontColor=default;fontStyle=0;rounded=0;" parent="1" vertex="1">
          <mxGeometry x="-870" y="253.5" width="17" height="17" as="geometry" />
        </mxCell>
        <mxCell id="hLZzUyZ3R9jghaq2go_g-143" value="descrizione della&lt;div&gt;struttura&lt;/div&gt;" style="text;html=1;align=center;verticalAlign=middle;resizable=0;points=[];autosize=1;strokeColor=none;fillColor=none;rounded=0;" parent="1" vertex="1">
          <mxGeometry x="-912" y="212.5" width="107" height="41" as="geometry" />
        </mxCell>
        <mxCell id="hLZzUyZ3R9jghaq2go_g-145" style="edgeStyle=none;rounded=0;orthogonalLoop=1;jettySize=auto;html=1;exitX=1;exitY=0.5;exitDx=0;exitDy=0;strokeColor=default;align=center;verticalAlign=middle;fontFamily=Helvetica;fontSize=11;fontColor=default;labelBackgroundColor=default;endArrow=none;endFill=0;" parent="1" source="hLZzUyZ3R9jghaq2go_g-144" edge="1">
          <mxGeometry relative="1" as="geometry">
            <mxPoint x="-742" y="358" as="targetPoint" />
            <Array as="points">
              <mxPoint x="-740" y="285" />
            </Array>
          </mxGeometry>
        </mxCell>
        <mxCell id="hLZzUyZ3R9jghaq2go_g-144" value="" style="ellipse;whiteSpace=wrap;html=1;aspect=fixed;fontSize=10;fontColor=default;fontStyle=0;rounded=0;fillColor=#030303;" parent="1" vertex="1">
          <mxGeometry x="-818" y="276.5" width="17" height="17" as="geometry" />
        </mxCell>
        <mxCell id="hLZzUyZ3R9jghaq2go_g-149" style="edgeStyle=none;rounded=0;orthogonalLoop=1;jettySize=auto;html=1;exitX=0.5;exitY=1;exitDx=0;exitDy=0;strokeColor=default;align=center;verticalAlign=middle;fontFamily=Helvetica;fontSize=11;fontColor=default;labelBackgroundColor=default;endArrow=none;endFill=0;" parent="1" source="hLZzUyZ3R9jghaq2go_g-146" target="hLZzUyZ3R9jghaq2go_g-148" edge="1">
          <mxGeometry relative="1" as="geometry" />
        </mxCell>
        <mxCell id="hLZzUyZ3R9jghaq2go_g-146" value="É composta" style="shape=rhombus;strokeWidth=2;fontSize=13;perimeter=rhombusPerimeter;whiteSpace=wrap;html=1;align=center;rounded=0;" parent="1" vertex="1">
          <mxGeometry x="-879" y="430" width="119" height="47" as="geometry" />
        </mxCell>
        <mxCell id="hLZzUyZ3R9jghaq2go_g-148" value="Sequenza di&lt;div&gt;amminoacidii&lt;/div&gt;" style="strokeWidth=2;whiteSpace=wrap;html=1;align=center;fontSize=13;fontFamily=Helvetica;rounded=0;" parent="1" vertex="1">
          <mxGeometry x="-873" y="558" width="111" height="36" as="geometry" />
        </mxCell>
        <mxCell id="hLZzUyZ3R9jghaq2go_g-150" value="(1,1)" style="text;html=1;align=center;verticalAlign=middle;resizable=0;points=[];autosize=1;strokeColor=none;fillColor=none;fontFamily=Helvetica;fontSize=11;fontColor=default;labelBackgroundColor=default;" parent="1" vertex="1">
          <mxGeometry x="-823" y="381" width="41" height="25" as="geometry" />
        </mxCell>
        <mxCell id="hLZzUyZ3R9jghaq2go_g-157" style="edgeStyle=none;rounded=0;orthogonalLoop=1;jettySize=auto;html=1;exitX=0.5;exitY=0;exitDx=0;exitDy=0;strokeColor=default;align=center;verticalAlign=middle;fontFamily=Helvetica;fontSize=11;fontColor=default;labelBackgroundColor=default;endArrow=none;endFill=0;" parent="1" source="hLZzUyZ3R9jghaq2go_g-151" target="hLZzUyZ3R9jghaq2go_g-148" edge="1">
          <mxGeometry relative="1" as="geometry" />
        </mxCell>
        <mxCell id="hLZzUyZ3R9jghaq2go_g-151" value="" style="ellipse;whiteSpace=wrap;html=1;aspect=fixed;fontSize=10;fontColor=default;fontStyle=0;rounded=0;" parent="1" vertex="1">
          <mxGeometry x="-831" y="628" width="17" height="17" as="geometry" />
        </mxCell>
        <mxCell id="hLZzUyZ3R9jghaq2go_g-158" style="edgeStyle=none;rounded=0;orthogonalLoop=1;jettySize=auto;html=1;exitX=1;exitY=0;exitDx=0;exitDy=0;strokeColor=default;align=center;verticalAlign=middle;fontFamily=Helvetica;fontSize=11;fontColor=default;labelBackgroundColor=default;endArrow=none;endFill=0;" parent="1" source="hLZzUyZ3R9jghaq2go_g-152" target="hLZzUyZ3R9jghaq2go_g-151" edge="1">
          <mxGeometry relative="1" as="geometry" />
        </mxCell>
        <mxCell id="hLZzUyZ3R9jghaq2go_g-152" value="" style="ellipse;whiteSpace=wrap;html=1;aspect=fixed;fontSize=10;fontColor=default;fontStyle=0;rounded=0;" parent="1" vertex="1">
          <mxGeometry x="-875" y="662" width="17" height="17" as="geometry" />
        </mxCell>
        <mxCell id="hLZzUyZ3R9jghaq2go_g-159" style="edgeStyle=none;rounded=0;orthogonalLoop=1;jettySize=auto;html=1;exitX=0.5;exitY=0;exitDx=0;exitDy=0;strokeColor=default;align=center;verticalAlign=middle;fontFamily=Helvetica;fontSize=11;fontColor=default;labelBackgroundColor=default;endArrow=none;endFill=0;" parent="1" source="hLZzUyZ3R9jghaq2go_g-153" target="hLZzUyZ3R9jghaq2go_g-151" edge="1">
          <mxGeometry relative="1" as="geometry" />
        </mxCell>
        <mxCell id="hLZzUyZ3R9jghaq2go_g-153" value="" style="ellipse;whiteSpace=wrap;html=1;aspect=fixed;fontSize=10;fontColor=default;fontStyle=0;rounded=0;" parent="1" vertex="1">
          <mxGeometry x="-831" y="688" width="17" height="17" as="geometry" />
        </mxCell>
        <mxCell id="hLZzUyZ3R9jghaq2go_g-160" style="edgeStyle=none;rounded=0;orthogonalLoop=1;jettySize=auto;html=1;exitX=0;exitY=0;exitDx=0;exitDy=0;strokeColor=default;align=center;verticalAlign=middle;fontFamily=Helvetica;fontSize=11;fontColor=default;labelBackgroundColor=default;endArrow=none;endFill=0;" parent="1" source="hLZzUyZ3R9jghaq2go_g-154" target="hLZzUyZ3R9jghaq2go_g-151" edge="1">
          <mxGeometry relative="1" as="geometry" />
        </mxCell>
        <mxCell id="hLZzUyZ3R9jghaq2go_g-154" value="" style="ellipse;whiteSpace=wrap;html=1;aspect=fixed;fontSize=10;fontColor=default;fontStyle=0;rounded=0;" parent="1" vertex="1">
          <mxGeometry x="-791" y="662" width="17" height="17" as="geometry" />
        </mxCell>
        <mxCell id="hLZzUyZ3R9jghaq2go_g-161" value="coordinate" style="text;html=1;align=center;verticalAlign=middle;resizable=0;points=[];autosize=1;strokeColor=none;fillColor=none;fontFamily=Helvetica;fontSize=11;fontColor=default;labelBackgroundColor=default;" parent="1" vertex="1">
          <mxGeometry x="-826" y="610" width="69" height="25" as="geometry" />
        </mxCell>
        <mxCell id="hLZzUyZ3R9jghaq2go_g-162" value="x" style="text;html=1;align=center;verticalAlign=middle;resizable=0;points=[];autosize=1;strokeColor=none;fillColor=none;fontFamily=Helvetica;fontSize=11;fontColor=default;labelBackgroundColor=default;" parent="1" vertex="1">
          <mxGeometry x="-891" y="674" width="24" height="25" as="geometry" />
        </mxCell>
        <mxCell id="hLZzUyZ3R9jghaq2go_g-163" value="y" style="text;html=1;align=center;verticalAlign=middle;resizable=0;points=[];autosize=1;strokeColor=none;fillColor=none;fontFamily=Helvetica;fontSize=11;fontColor=default;labelBackgroundColor=default;" parent="1" vertex="1">
          <mxGeometry x="-835" y="704" width="24" height="25" as="geometry" />
        </mxCell>
        <mxCell id="hLZzUyZ3R9jghaq2go_g-164" value="z" style="text;html=1;align=center;verticalAlign=middle;resizable=0;points=[];autosize=1;strokeColor=none;fillColor=none;fontFamily=Helvetica;fontSize=11;fontColor=default;labelBackgroundColor=default;" parent="1" vertex="1">
          <mxGeometry x="-775" y="670" width="24" height="25" as="geometry" />
        </mxCell>
        <mxCell id="hLZzUyZ3R9jghaq2go_g-165" value="(0,1)" style="text;html=1;align=center;verticalAlign=middle;resizable=0;points=[];autosize=1;strokeColor=none;fillColor=none;fontFamily=Helvetica;fontSize=11;fontColor=default;labelBackgroundColor=default;" parent="1" vertex="1">
          <mxGeometry x="-805" y="630" width="41" height="25" as="geometry" />
        </mxCell>
        <mxCell id="hLZzUyZ3R9jghaq2go_g-166" value="(0,1)" style="text;html=1;align=center;verticalAlign=middle;resizable=0;points=[];autosize=1;strokeColor=none;fillColor=none;fontFamily=Helvetica;fontSize=11;fontColor=default;labelBackgroundColor=default;" parent="1" vertex="1">
          <mxGeometry x="-879" y="630" width="41" height="25" as="geometry" />
        </mxCell>
        <mxCell id="hLZzUyZ3R9jghaq2go_g-167" value="(0,1)" style="text;html=1;align=center;verticalAlign=middle;resizable=0;points=[];autosize=1;strokeColor=none;fillColor=none;fontFamily=Helvetica;fontSize=11;fontColor=default;labelBackgroundColor=default;" parent="1" vertex="1">
          <mxGeometry x="-858" y="658" width="41" height="25" as="geometry" />
        </mxCell>
        <mxCell id="hLZzUyZ3R9jghaq2go_g-170" style="edgeStyle=none;rounded=0;orthogonalLoop=1;jettySize=auto;html=1;exitX=0;exitY=0.5;exitDx=0;exitDy=0;entryX=1;entryY=0.5;entryDx=0;entryDy=0;strokeColor=default;align=center;verticalAlign=middle;fontFamily=Helvetica;fontSize=11;fontColor=default;labelBackgroundColor=default;endArrow=none;endFill=0;" parent="1" source="hLZzUyZ3R9jghaq2go_g-168" target="hLZzUyZ3R9jghaq2go_g-148" edge="1">
          <mxGeometry relative="1" as="geometry" />
        </mxCell>
        <mxCell id="hLZzUyZ3R9jghaq2go_g-168" value="" style="ellipse;whiteSpace=wrap;html=1;aspect=fixed;fontSize=10;fontColor=default;fontStyle=0;fillColor=#030303;rounded=0;" parent="1" vertex="1">
          <mxGeometry x="-724" y="567.5" width="17" height="17" as="geometry" />
        </mxCell>
        <mxCell id="hLZzUyZ3R9jghaq2go_g-169" value="numero" style="text;html=1;align=center;verticalAlign=middle;resizable=0;points=[];autosize=1;strokeColor=none;fillColor=none;fontFamily=Helvetica;fontSize=11;fontColor=default;labelBackgroundColor=default;" parent="1" vertex="1">
          <mxGeometry x="-709" y="563.5" width="55" height="25" as="geometry" />
        </mxCell>
        <mxCell id="hLZzUyZ3R9jghaq2go_g-177" style="edgeStyle=none;rounded=0;orthogonalLoop=1;jettySize=auto;html=1;exitX=0.5;exitY=1;exitDx=0;exitDy=0;strokeColor=default;align=center;verticalAlign=middle;fontFamily=Helvetica;fontSize=11;fontColor=default;labelBackgroundColor=default;endArrow=none;endFill=0;" parent="1" source="hLZzUyZ3R9jghaq2go_g-171" target="hLZzUyZ3R9jghaq2go_g-175" edge="1">
          <mxGeometry relative="1" as="geometry" />
        </mxCell>
        <mxCell id="hLZzUyZ3R9jghaq2go_g-183" style="edgeStyle=none;rounded=0;orthogonalLoop=1;jettySize=auto;html=1;exitX=0.5;exitY=0;exitDx=0;exitDy=0;entryX=0.481;entryY=0.985;entryDx=0;entryDy=0;strokeColor=default;align=center;verticalAlign=middle;fontFamily=Helvetica;fontSize=11;fontColor=default;labelBackgroundColor=default;endArrow=none;endFill=0;entryPerimeter=0;" parent="1" source="hLZzUyZ3R9jghaq2go_g-171" target="hLZzUyZ3R9jghaq2go_g-181" edge="1">
          <mxGeometry relative="1" as="geometry">
            <Array as="points">
              <mxPoint x="-1190" y="531" />
              <mxPoint x="-1102" y="529" />
            </Array>
          </mxGeometry>
        </mxCell>
        <mxCell id="hLZzUyZ3R9jghaq2go_g-171" value="Sperimentale" style="strokeWidth=2;whiteSpace=wrap;html=1;align=center;fontSize=13;fontFamily=Helvetica;rounded=0;" parent="1" vertex="1">
          <mxGeometry x="-1246" y="584.5" width="111" height="36" as="geometry" />
        </mxCell>
        <mxCell id="hLZzUyZ3R9jghaq2go_g-172" value="É determinata" style="shape=rhombus;strokeWidth=2;fontSize=13;perimeter=rhombusPerimeter;whiteSpace=wrap;html=1;align=center;rounded=0;" parent="1" vertex="1">
          <mxGeometry x="-1018" y="391" width="119" height="47" as="geometry" />
        </mxCell>
        <mxCell id="hLZzUyZ3R9jghaq2go_g-179" style="edgeStyle=none;rounded=0;orthogonalLoop=1;jettySize=auto;html=1;exitX=0.5;exitY=1;exitDx=0;exitDy=0;strokeColor=default;align=center;verticalAlign=middle;fontFamily=Helvetica;fontSize=11;fontColor=default;labelBackgroundColor=default;endArrow=none;endFill=0;" parent="1" source="hLZzUyZ3R9jghaq2go_g-174" target="hLZzUyZ3R9jghaq2go_g-178" edge="1">
          <mxGeometry relative="1" as="geometry" />
        </mxCell>
        <mxCell id="hLZzUyZ3R9jghaq2go_g-184" style="edgeStyle=none;rounded=0;orthogonalLoop=1;jettySize=auto;html=1;exitX=0.5;exitY=0;exitDx=0;exitDy=0;strokeColor=default;align=center;verticalAlign=middle;fontFamily=Helvetica;fontSize=11;fontColor=default;labelBackgroundColor=default;endArrow=block;endFill=1;endSize=15;" parent="1" source="hLZzUyZ3R9jghaq2go_g-174" edge="1">
          <mxGeometry relative="1" as="geometry">
            <mxPoint x="-1101.6666666666667" y="483" as="targetPoint" />
            <Array as="points">
              <mxPoint x="-1015" y="530" />
              <mxPoint x="-1102" y="530" />
            </Array>
          </mxGeometry>
        </mxCell>
        <mxCell id="hLZzUyZ3R9jghaq2go_g-174" value="Algoritmica" style="strokeWidth=2;whiteSpace=wrap;html=1;align=center;fontSize=13;fontFamily=Helvetica;rounded=0;" parent="1" vertex="1">
          <mxGeometry x="-1069" y="584.5" width="111" height="36" as="geometry" />
        </mxCell>
        <mxCell id="hLZzUyZ3R9jghaq2go_g-175" value="" style="ellipse;whiteSpace=wrap;html=1;aspect=fixed;fontSize=10;fontColor=default;fontStyle=0;rounded=0;" parent="1" vertex="1">
          <mxGeometry x="-1199" y="666" width="17" height="17" as="geometry" />
        </mxCell>
        <mxCell id="hLZzUyZ3R9jghaq2go_g-176" value="metodo" style="text;html=1;align=center;verticalAlign=middle;resizable=0;points=[];autosize=1;strokeColor=none;fillColor=none;fontFamily=Helvetica;fontSize=11;fontColor=default;labelBackgroundColor=default;" parent="1" vertex="1">
          <mxGeometry x="-1219" y="681" width="55" height="25" as="geometry" />
        </mxCell>
        <mxCell id="hLZzUyZ3R9jghaq2go_g-178" value="" style="ellipse;whiteSpace=wrap;html=1;aspect=fixed;fontSize=10;fontColor=default;fontStyle=0;rounded=0;direction=south;" parent="1" vertex="1">
          <mxGeometry x="-1022" y="664" width="17" height="17" as="geometry" />
        </mxCell>
        <mxCell id="hLZzUyZ3R9jghaq2go_g-180" value="software" style="text;html=1;align=center;verticalAlign=middle;resizable=0;points=[];autosize=1;strokeColor=none;fillColor=none;fontFamily=Helvetica;fontSize=11;fontColor=default;labelBackgroundColor=default;" parent="1" vertex="1">
          <mxGeometry x="-1044.5" y="679" width="60" height="25" as="geometry" />
        </mxCell>
        <mxCell id="hLZzUyZ3R9jghaq2go_g-185" style="edgeStyle=none;rounded=0;orthogonalLoop=1;jettySize=auto;html=1;exitX=0.5;exitY=0;exitDx=0;exitDy=0;strokeColor=default;align=center;verticalAlign=middle;fontFamily=Helvetica;fontSize=11;fontColor=default;labelBackgroundColor=default;endArrow=none;endFill=0;" parent="1" source="hLZzUyZ3R9jghaq2go_g-181" target="hLZzUyZ3R9jghaq2go_g-172" edge="1">
          <mxGeometry relative="1" as="geometry" />
        </mxCell>
        <mxCell id="hLZzUyZ3R9jghaq2go_g-181" value="Metodo di&lt;div&gt;determinazione&lt;/div&gt;" style="strokeWidth=2;whiteSpace=wrap;html=1;align=center;fontSize=13;fontFamily=Helvetica;rounded=0;" parent="1" vertex="1">
          <mxGeometry x="-1155" y="450" width="111" height="36" as="geometry" />
        </mxCell>
        <mxCell id="hLZzUyZ3R9jghaq2go_g-186" value="(1,1)" style="text;html=1;align=center;verticalAlign=middle;resizable=0;points=[];autosize=1;strokeColor=none;fillColor=none;fontFamily=Helvetica;fontSize=11;fontColor=default;labelBackgroundColor=default;" parent="1" vertex="1">
          <mxGeometry x="-938" y="350" width="41" height="25" as="geometry" />
        </mxCell>
        <mxCell id="hLZzUyZ3R9jghaq2go_g-187" value="(1,1)" style="text;html=1;align=center;verticalAlign=middle;resizable=0;points=[];autosize=1;strokeColor=none;fillColor=none;fontFamily=Helvetica;fontSize=11;fontColor=default;labelBackgroundColor=default;" parent="1" vertex="1">
          <mxGeometry x="-1085" y="413" width="41" height="25" as="geometry" />
        </mxCell>
      </root>
    </mxGraphModel>
  </diagram>
  <diagram id="ez7ltVSEgiviQjspv2a9" name="Studenti">
    <mxGraphModel dx="3486" dy="856" grid="0" gridSize="10" guides="1" tooltips="1" connect="1" arrows="1" fold="1" page="0" pageScale="1" pageWidth="827" pageHeight="1169" math="0" shadow="0">
      <root>
        <mxCell id="0" />
        <mxCell id="1" parent="0" />
        <mxCell id="jCCVhROzF3LObY4yUFuB-5" value="Entirá" style="strokeWidth=2;whiteSpace=wrap;html=1;align=center;fontSize=13;fontFamily=Helvetica;rounded=0;" parent="1" vertex="1">
          <mxGeometry x="-791" y="73" width="82" height="36" as="geometry" />
        </mxCell>
        <mxCell id="jCCVhROzF3LObY4yUFuB-6" value="Relazione" style="shape=rhombus;strokeWidth=2;fontSize=13;perimeter=rhombusPerimeter;whiteSpace=wrap;html=1;align=center;rounded=0;" parent="1" vertex="1">
          <mxGeometry x="-953" y="67.5" width="119" height="47" as="geometry" />
        </mxCell>
        <mxCell id="jCCVhROzF3LObY4yUFuB-26" style="edgeStyle=none;rounded=0;orthogonalLoop=1;jettySize=auto;html=1;exitX=1;exitY=0.5;exitDx=0;exitDy=0;entryX=0;entryY=0.5;entryDx=0;entryDy=0;strokeColor=default;align=center;verticalAlign=middle;fontFamily=Helvetica;fontSize=11;fontColor=default;labelBackgroundColor=default;endArrow=none;endFill=0;" parent="1" source="jCCVhROzF3LObY4yUFuB-12" target="jCCVhROzF3LObY4yUFuB-25" edge="1">
          <mxGeometry relative="1" as="geometry" />
        </mxCell>
        <mxCell id="jCCVhROzF3LObY4yUFuB-113" style="edgeStyle=none;rounded=0;orthogonalLoop=1;jettySize=auto;html=1;exitX=0;exitY=0.5;exitDx=0;exitDy=0;entryX=0.5;entryY=0;entryDx=0;entryDy=0;strokeColor=default;align=center;verticalAlign=middle;fontFamily=Helvetica;fontSize=11;fontColor=default;labelBackgroundColor=default;endArrow=none;endFill=0;" parent="1" source="jCCVhROzF3LObY4yUFuB-12" target="jCCVhROzF3LObY4yUFuB-112" edge="1">
          <mxGeometry relative="1" as="geometry">
            <Array as="points">
              <mxPoint x="-961" y="386" />
            </Array>
          </mxGeometry>
        </mxCell>
        <mxCell id="jCCVhROzF3LObY4yUFuB-12" value="Insegnamento" style="strokeWidth=2;whiteSpace=wrap;html=1;align=center;fontSize=13;fontFamily=Helvetica;rounded=0;" parent="1" vertex="1">
          <mxGeometry x="-756" y="329" width="118" height="36" as="geometry" />
        </mxCell>
        <mxCell id="jCCVhROzF3LObY4yUFuB-16" style="rounded=0;orthogonalLoop=1;jettySize=auto;html=1;exitX=0.5;exitY=1;exitDx=0;exitDy=0;endArrow=none;endFill=0;entryX=0.25;entryY=0;entryDx=0;entryDy=0;" parent="1" source="jCCVhROzF3LObY4yUFuB-14" target="jCCVhROzF3LObY4yUFuB-12" edge="1">
          <mxGeometry relative="1" as="geometry" />
        </mxCell>
        <mxCell id="jCCVhROzF3LObY4yUFuB-14" value="" style="ellipse;whiteSpace=wrap;html=1;aspect=fixed;fontSize=10;fontColor=default;fontStyle=0;fillColor=#030303;rounded=0;" parent="1" vertex="1">
          <mxGeometry x="-747.5" y="265" width="17" height="17" as="geometry" />
        </mxCell>
        <mxCell id="jCCVhROzF3LObY4yUFuB-15" value="&lt;div&gt;Codice&lt;/div&gt;&lt;div&gt;univoco&lt;/div&gt;" style="text;html=1;align=center;verticalAlign=middle;resizable=0;points=[];autosize=1;strokeColor=none;fillColor=none;rounded=0;" parent="1" vertex="1">
          <mxGeometry x="-772" y="224" width="60" height="41" as="geometry" />
        </mxCell>
        <mxCell id="jCCVhROzF3LObY4yUFuB-17" value="" style="group" parent="1" vertex="1" connectable="0">
          <mxGeometry x="-679" y="54" width="63" height="51" as="geometry" />
        </mxCell>
        <mxCell id="jCCVhROzF3LObY4yUFuB-1" value="" style="ellipse;whiteSpace=wrap;html=1;aspect=fixed;fontSize=10;fontColor=default;fontStyle=0;rounded=0;" parent="jCCVhROzF3LObY4yUFuB-17" vertex="1">
          <mxGeometry x="22.5" y="34" width="17" height="17" as="geometry" />
        </mxCell>
        <mxCell id="jCCVhROzF3LObY4yUFuB-2" value="Attributo" style="text;html=1;align=center;verticalAlign=middle;resizable=0;points=[];autosize=1;strokeColor=none;fillColor=none;rounded=0;" parent="jCCVhROzF3LObY4yUFuB-17" vertex="1">
          <mxGeometry width="63" height="26" as="geometry" />
        </mxCell>
        <mxCell id="jCCVhROzF3LObY4yUFuB-18" value="" style="group" parent="1" vertex="1" connectable="0">
          <mxGeometry x="-616" y="54" width="55" height="51" as="geometry" />
        </mxCell>
        <mxCell id="jCCVhROzF3LObY4yUFuB-3" value="" style="ellipse;whiteSpace=wrap;html=1;aspect=fixed;fontSize=10;fontColor=default;fontStyle=0;fillColor=#030303;rounded=0;" parent="jCCVhROzF3LObY4yUFuB-18" vertex="1">
          <mxGeometry x="18.5" y="34" width="17" height="17" as="geometry" />
        </mxCell>
        <mxCell id="jCCVhROzF3LObY4yUFuB-4" value="Chiave" style="text;html=1;align=center;verticalAlign=middle;resizable=0;points=[];autosize=1;strokeColor=none;fillColor=none;rounded=0;" parent="jCCVhROzF3LObY4yUFuB-18" vertex="1">
          <mxGeometry width="55" height="26" as="geometry" />
        </mxCell>
        <mxCell id="jCCVhROzF3LObY4yUFuB-19" value="" style="group" parent="1" vertex="1" connectable="0">
          <mxGeometry x="-554" y="54" width="63" height="51" as="geometry" />
        </mxCell>
        <mxCell id="jCCVhROzF3LObY4yUFuB-7" value="" style="ellipse;whiteSpace=wrap;html=1;aspect=fixed;fontSize=10;fontColor=default;fontStyle=0;dashed=1;rounded=0;" parent="jCCVhROzF3LObY4yUFuB-19" vertex="1">
          <mxGeometry x="22.5" y="34" width="17" height="17" as="geometry" />
        </mxCell>
        <mxCell id="jCCVhROzF3LObY4yUFuB-8" value="Derivato" style="text;html=1;align=center;verticalAlign=middle;resizable=0;points=[];autosize=1;strokeColor=none;fillColor=none;rounded=0;" parent="jCCVhROzF3LObY4yUFuB-19" vertex="1">
          <mxGeometry width="63" height="26" as="geometry" />
        </mxCell>
        <mxCell id="jCCVhROzF3LObY4yUFuB-20" value="" style="group" parent="1" vertex="1" connectable="0">
          <mxGeometry x="-724.5" y="228" width="55" height="51" as="geometry" />
        </mxCell>
        <mxCell id="jCCVhROzF3LObY4yUFuB-21" value="" style="ellipse;whiteSpace=wrap;html=1;aspect=fixed;fontSize=10;fontColor=default;fontStyle=0;fillColor=#030303;rounded=0;" parent="jCCVhROzF3LObY4yUFuB-20" vertex="1">
          <mxGeometry x="18.5" y="34" width="17" height="17" as="geometry" />
        </mxCell>
        <mxCell id="jCCVhROzF3LObY4yUFuB-22" value="Nome" style="text;html=1;align=center;verticalAlign=middle;resizable=0;points=[];autosize=1;strokeColor=none;fillColor=none;rounded=0;" parent="jCCVhROzF3LObY4yUFuB-20" vertex="1">
          <mxGeometry x="2" width="52" height="26" as="geometry" />
        </mxCell>
        <mxCell id="jCCVhROzF3LObY4yUFuB-23" style="edgeStyle=none;rounded=0;orthogonalLoop=1;jettySize=auto;html=1;exitX=0.5;exitY=1;exitDx=0;exitDy=0;strokeColor=default;align=center;verticalAlign=middle;fontFamily=Helvetica;fontSize=11;fontColor=default;labelBackgroundColor=default;endArrow=none;endFill=0;" parent="1" source="jCCVhROzF3LObY4yUFuB-21" target="jCCVhROzF3LObY4yUFuB-12" edge="1">
          <mxGeometry relative="1" as="geometry" />
        </mxCell>
        <mxCell id="jCCVhROzF3LObY4yUFuB-122" style="edgeStyle=none;rounded=0;orthogonalLoop=1;jettySize=auto;html=1;exitX=1;exitY=0.5;exitDx=0;exitDy=0;entryX=0;entryY=0.5;entryDx=0;entryDy=0;strokeColor=default;align=center;verticalAlign=middle;fontFamily=Helvetica;fontSize=11;fontColor=default;labelBackgroundColor=default;endArrow=none;endFill=0;" parent="1" source="jCCVhROzF3LObY4yUFuB-24" target="jCCVhROzF3LObY4yUFuB-121" edge="1">
          <mxGeometry relative="1" as="geometry" />
        </mxCell>
        <mxCell id="jCCVhROzF3LObY4yUFuB-24" value="Libro di testo" style="strokeWidth=2;whiteSpace=wrap;html=1;align=center;fontSize=13;fontFamily=Helvetica;rounded=0;" parent="1" vertex="1">
          <mxGeometry x="-426" y="329" width="118" height="36" as="geometry" />
        </mxCell>
        <mxCell id="jCCVhROzF3LObY4yUFuB-45" style="edgeStyle=none;rounded=0;orthogonalLoop=1;jettySize=auto;html=1;exitX=1;exitY=0.5;exitDx=0;exitDy=0;strokeColor=default;align=center;verticalAlign=middle;fontFamily=Helvetica;fontSize=11;fontColor=default;labelBackgroundColor=default;endArrow=none;endFill=0;" parent="1" source="jCCVhROzF3LObY4yUFuB-25" target="jCCVhROzF3LObY4yUFuB-24" edge="1">
          <mxGeometry relative="1" as="geometry" />
        </mxCell>
        <mxCell id="jCCVhROzF3LObY4yUFuB-25" value="Adotta" style="shape=rhombus;strokeWidth=2;fontSize=13;perimeter=rhombusPerimeter;whiteSpace=wrap;html=1;align=center;rounded=0;" parent="1" vertex="1">
          <mxGeometry x="-589" y="323.5" width="119" height="47" as="geometry" />
        </mxCell>
        <mxCell id="jCCVhROzF3LObY4yUFuB-29" value="" style="group" parent="1" vertex="1" connectable="0">
          <mxGeometry x="-441" y="231" width="63.5" height="51" as="geometry" />
        </mxCell>
        <mxCell id="jCCVhROzF3LObY4yUFuB-30" value="" style="ellipse;whiteSpace=wrap;html=1;aspect=fixed;fontSize=10;fontColor=default;fontStyle=0;rounded=0;" parent="jCCVhROzF3LObY4yUFuB-29" vertex="1">
          <mxGeometry x="22.5" y="34" width="17" height="17" as="geometry" />
        </mxCell>
        <mxCell id="jCCVhROzF3LObY4yUFuB-31" value="Titolo" style="text;html=1;align=center;verticalAlign=middle;resizable=0;points=[];autosize=1;strokeColor=none;fillColor=none;rounded=0;" parent="jCCVhROzF3LObY4yUFuB-29" vertex="1">
          <mxGeometry x="8" width="48" height="26" as="geometry" />
        </mxCell>
        <mxCell id="jCCVhROzF3LObY4yUFuB-35" value="" style="group" parent="1" vertex="1" connectable="0">
          <mxGeometry x="-669.5" y="231" width="69" height="51" as="geometry" />
        </mxCell>
        <mxCell id="jCCVhROzF3LObY4yUFuB-36" value="" style="ellipse;whiteSpace=wrap;html=1;aspect=fixed;fontSize=10;fontColor=default;fontStyle=0;rounded=0;" parent="jCCVhROzF3LObY4yUFuB-35" vertex="1">
          <mxGeometry x="22.5" y="34" width="17" height="17" as="geometry" />
        </mxCell>
        <mxCell id="jCCVhROzF3LObY4yUFuB-37" value="Semestre" style="text;html=1;align=center;verticalAlign=middle;resizable=0;points=[];autosize=1;strokeColor=none;fillColor=none;rounded=0;" parent="jCCVhROzF3LObY4yUFuB-35" vertex="1">
          <mxGeometry x="-3" width="72" height="26" as="geometry" />
        </mxCell>
        <mxCell id="jCCVhROzF3LObY4yUFuB-38" value="" style="group" parent="1" vertex="1" connectable="0">
          <mxGeometry x="-333" y="251" width="80" height="51" as="geometry" />
        </mxCell>
        <mxCell id="jCCVhROzF3LObY4yUFuB-39" value="" style="ellipse;whiteSpace=wrap;html=1;aspect=fixed;fontSize=10;fontColor=default;fontStyle=0;rounded=0;" parent="jCCVhROzF3LObY4yUFuB-38" vertex="1">
          <mxGeometry x="22.5" y="34" width="17" height="17" as="geometry" />
        </mxCell>
        <mxCell id="jCCVhROzF3LObY4yUFuB-40" value="&lt;div&gt;Anno&lt;/div&gt;&lt;div&gt;pubblicazione&lt;br&gt;&lt;/div&gt;" style="text;html=1;align=center;verticalAlign=middle;resizable=0;points=[];autosize=1;strokeColor=none;fillColor=none;rounded=0;" parent="jCCVhROzF3LObY4yUFuB-38" vertex="1">
          <mxGeometry x="-14" y="-7" width="94" height="41" as="geometry" />
        </mxCell>
        <mxCell id="jCCVhROzF3LObY4yUFuB-42" style="edgeStyle=none;rounded=0;orthogonalLoop=1;jettySize=auto;html=1;exitX=0;exitY=1;exitDx=0;exitDy=0;entryX=0.75;entryY=0;entryDx=0;entryDy=0;strokeColor=default;align=center;verticalAlign=middle;fontFamily=Helvetica;fontSize=11;fontColor=default;labelBackgroundColor=default;endArrow=none;endFill=0;" parent="1" source="jCCVhROzF3LObY4yUFuB-39" target="jCCVhROzF3LObY4yUFuB-24" edge="1">
          <mxGeometry relative="1" as="geometry" />
        </mxCell>
        <mxCell id="jCCVhROzF3LObY4yUFuB-43" style="edgeStyle=none;rounded=0;orthogonalLoop=1;jettySize=auto;html=1;strokeColor=default;align=center;verticalAlign=middle;fontFamily=Helvetica;fontSize=11;fontColor=default;labelBackgroundColor=default;endArrow=none;endFill=0;entryX=0.75;entryY=0;entryDx=0;entryDy=0;" parent="1" source="jCCVhROzF3LObY4yUFuB-36" target="jCCVhROzF3LObY4yUFuB-12" edge="1">
          <mxGeometry relative="1" as="geometry">
            <mxPoint x="-668" y="326" as="targetPoint" />
          </mxGeometry>
        </mxCell>
        <mxCell id="jCCVhROzF3LObY4yUFuB-44" style="edgeStyle=none;rounded=0;orthogonalLoop=1;jettySize=auto;html=1;exitX=0.5;exitY=1;exitDx=0;exitDy=0;entryX=0.25;entryY=0;entryDx=0;entryDy=0;strokeColor=default;align=center;verticalAlign=middle;fontFamily=Helvetica;fontSize=11;fontColor=default;labelBackgroundColor=default;endArrow=none;endFill=0;" parent="1" source="jCCVhROzF3LObY4yUFuB-30" target="jCCVhROzF3LObY4yUFuB-24" edge="1">
          <mxGeometry relative="1" as="geometry" />
        </mxCell>
        <mxCell id="jCCVhROzF3LObY4yUFuB-46" value="(1,1)" style="text;html=1;align=center;verticalAlign=middle;resizable=0;points=[];autosize=1;strokeColor=none;fillColor=none;fontFamily=Helvetica;fontSize=11;fontColor=default;labelBackgroundColor=default;" parent="1" vertex="1">
          <mxGeometry x="-635.5" y="320" width="41" height="25" as="geometry" />
        </mxCell>
        <mxCell id="jCCVhROzF3LObY4yUFuB-47" value="(1,n)" style="text;html=1;align=center;verticalAlign=middle;resizable=0;points=[];autosize=1;strokeColor=none;fillColor=none;fontFamily=Helvetica;fontSize=11;fontColor=default;labelBackgroundColor=default;" parent="1" vertex="1">
          <mxGeometry x="-470.5" y="323" width="41" height="25" as="geometry" />
        </mxCell>
        <mxCell id="jCCVhROzF3LObY4yUFuB-50" style="edgeStyle=none;rounded=0;orthogonalLoop=1;jettySize=auto;html=1;exitX=1;exitY=0.5;exitDx=0;exitDy=0;strokeColor=default;align=center;verticalAlign=middle;fontFamily=Helvetica;fontSize=11;fontColor=default;labelBackgroundColor=default;endArrow=none;endFill=0;" parent="1" source="jCCVhROzF3LObY4yUFuB-48" edge="1">
          <mxGeometry relative="1" as="geometry">
            <mxPoint x="-287" y="314" as="targetPoint" />
          </mxGeometry>
        </mxCell>
        <mxCell id="jCCVhROzF3LObY4yUFuB-48" value="" style="ellipse;whiteSpace=wrap;html=1;aspect=fixed;fontSize=10;fontColor=default;fontStyle=0;fillColor=#030303;rounded=0;" parent="1" vertex="1">
          <mxGeometry x="-446.5" y="292" width="17" height="17" as="geometry" />
        </mxCell>
        <mxCell id="jCCVhROzF3LObY4yUFuB-71" style="edgeStyle=none;rounded=0;orthogonalLoop=1;jettySize=auto;html=1;exitX=1;exitY=0.5;exitDx=0;exitDy=0;entryX=0;entryY=0.5;entryDx=0;entryDy=0;strokeColor=default;align=center;verticalAlign=middle;fontFamily=Helvetica;fontSize=11;fontColor=default;labelBackgroundColor=default;endArrow=none;endFill=0;" parent="1" source="jCCVhROzF3LObY4yUFuB-51" target="jCCVhROzF3LObY4yUFuB-69" edge="1">
          <mxGeometry relative="1" as="geometry" />
        </mxCell>
        <mxCell id="jCCVhROzF3LObY4yUFuB-51" value="Appelli orali" style="strokeWidth=2;whiteSpace=wrap;html=1;align=center;fontSize=13;fontFamily=Helvetica;rounded=0;" parent="1" vertex="1">
          <mxGeometry x="-756" y="516" width="118" height="36" as="geometry" />
        </mxCell>
        <mxCell id="jCCVhROzF3LObY4yUFuB-53" style="edgeStyle=none;rounded=0;orthogonalLoop=1;jettySize=auto;html=1;exitX=0.5;exitY=0;exitDx=0;exitDy=0;strokeColor=default;align=center;verticalAlign=middle;fontFamily=Helvetica;fontSize=11;fontColor=default;labelBackgroundColor=default;endArrow=none;endFill=0;" parent="1" source="jCCVhROzF3LObY4yUFuB-52" target="jCCVhROzF3LObY4yUFuB-12" edge="1">
          <mxGeometry relative="1" as="geometry" />
        </mxCell>
        <mxCell id="jCCVhROzF3LObY4yUFuB-55" style="edgeStyle=none;rounded=0;orthogonalLoop=1;jettySize=auto;html=1;exitX=0.5;exitY=1;exitDx=0;exitDy=0;strokeColor=default;align=center;verticalAlign=middle;fontFamily=Helvetica;fontSize=11;fontColor=default;labelBackgroundColor=default;endArrow=none;endFill=0;" parent="1" source="jCCVhROzF3LObY4yUFuB-52" target="jCCVhROzF3LObY4yUFuB-51" edge="1">
          <mxGeometry relative="1" as="geometry" />
        </mxCell>
        <mxCell id="jCCVhROzF3LObY4yUFuB-52" value="Prevede" style="shape=rhombus;strokeWidth=2;fontSize=13;perimeter=rhombusPerimeter;whiteSpace=wrap;html=1;align=center;rounded=0;" parent="1" vertex="1">
          <mxGeometry x="-760" y="422" width="119" height="47" as="geometry" />
        </mxCell>
        <mxCell id="jCCVhROzF3LObY4yUFuB-56" value="(1,n)" style="text;html=1;align=center;verticalAlign=middle;resizable=0;points=[];autosize=1;strokeColor=none;fillColor=none;fontFamily=Helvetica;fontSize=11;fontColor=default;labelBackgroundColor=default;" parent="1" vertex="1">
          <mxGeometry x="-703.5" y="379" width="41" height="25" as="geometry" />
        </mxCell>
        <mxCell id="jCCVhROzF3LObY4yUFuB-57" value="(1,1)" style="text;html=1;align=center;verticalAlign=middle;resizable=0;points=[];autosize=1;strokeColor=none;fillColor=none;fontFamily=Helvetica;fontSize=11;fontColor=default;labelBackgroundColor=default;" parent="1" vertex="1">
          <mxGeometry x="-702" y="469" width="41" height="25" as="geometry" />
        </mxCell>
        <mxCell id="jCCVhROzF3LObY4yUFuB-58" value="&lt;div align=&quot;left&quot;&gt;&lt;u&gt;&lt;b&gt;Vincoli&lt;/b&gt;&lt;/u&gt;:&lt;/div&gt;&lt;div align=&quot;left&quot;&gt;&lt;br&gt;&lt;/div&gt;&lt;div align=&quot;left&quot;&gt;&lt;ul style=&quot;line-height: 170%;&quot;&gt;&lt;li&gt; Ciascuno studente può sostenere soltanto esami di corsi presenti nel proprio piano di studi (ossia, corsi cui è iscritto)&lt;/li&gt;&lt;li&gt;Le aule si trovano tutte in più piani e sono numerate in ordine sequenziale in ciascun piano&lt;/li&gt;&lt;li&gt; Appelli di insegnamenti distinti non possono mai aver luogo in una stessa aula nello stesso orario.&lt;/li&gt;&lt;li&gt;Uno stesso studente non può essere iscritto a due appelli di insegnamenti diversi nello stesso orario.&lt;/li&gt;&lt;/ul&gt;&lt;/div&gt;" style="text;html=1;align=left;verticalAlign=middle;resizable=0;points=[];autosize=1;strokeColor=none;fillColor=none;fontFamily=Helvetica;fontSize=11;fontColor=default;labelBackgroundColor=default;spacing=3;" parent="1" vertex="1">
          <mxGeometry x="-1409" y="217" width="623" height="139" as="geometry" />
        </mxCell>
        <mxCell id="jCCVhROzF3LObY4yUFuB-65" style="edgeStyle=none;rounded=0;orthogonalLoop=1;jettySize=auto;html=1;exitX=1;exitY=0.5;exitDx=0;exitDy=0;entryX=0;entryY=0.25;entryDx=0;entryDy=0;strokeColor=default;align=center;verticalAlign=middle;fontFamily=Helvetica;fontSize=11;fontColor=default;labelBackgroundColor=default;endArrow=none;endFill=0;" parent="1" source="jCCVhROzF3LObY4yUFuB-60" target="jCCVhROzF3LObY4yUFuB-51" edge="1">
          <mxGeometry relative="1" as="geometry" />
        </mxCell>
        <mxCell id="jCCVhROzF3LObY4yUFuB-60" value="" style="ellipse;whiteSpace=wrap;html=1;aspect=fixed;fontSize=10;fontColor=default;fontStyle=0;rounded=0;" parent="1" vertex="1">
          <mxGeometry x="-823.5" y="511" width="17" height="17" as="geometry" />
        </mxCell>
        <mxCell id="jCCVhROzF3LObY4yUFuB-61" value="Data" style="text;html=1;align=center;verticalAlign=middle;resizable=0;points=[];autosize=1;strokeColor=none;fillColor=none;rounded=0;" parent="1" vertex="1">
          <mxGeometry x="-867.5" y="536" width="44" height="26" as="geometry" />
        </mxCell>
        <mxCell id="jCCVhROzF3LObY4yUFuB-66" style="edgeStyle=none;rounded=0;orthogonalLoop=1;jettySize=auto;html=1;exitX=1;exitY=0.5;exitDx=0;exitDy=0;strokeColor=default;align=center;verticalAlign=middle;fontFamily=Helvetica;fontSize=11;fontColor=default;labelBackgroundColor=default;endArrow=none;endFill=0;" parent="1" source="jCCVhROzF3LObY4yUFuB-63" target="jCCVhROzF3LObY4yUFuB-51" edge="1">
          <mxGeometry relative="1" as="geometry" />
        </mxCell>
        <mxCell id="jCCVhROzF3LObY4yUFuB-63" value="" style="ellipse;whiteSpace=wrap;html=1;aspect=fixed;fontSize=10;fontColor=default;fontStyle=0;rounded=0;" parent="1" vertex="1">
          <mxGeometry x="-823.5" y="542" width="17" height="17" as="geometry" />
        </mxCell>
        <mxCell id="jCCVhROzF3LObY4yUFuB-64" value="Ora" style="text;html=1;align=center;verticalAlign=middle;resizable=0;points=[];autosize=1;strokeColor=none;fillColor=none;rounded=0;" parent="1" vertex="1">
          <mxGeometry x="-861.5" y="504" width="38" height="26" as="geometry" />
        </mxCell>
        <mxCell id="jCCVhROzF3LObY4yUFuB-68" style="edgeStyle=none;rounded=0;orthogonalLoop=1;jettySize=auto;html=1;exitX=0.5;exitY=0;exitDx=0;exitDy=0;strokeColor=default;align=center;verticalAlign=middle;fontFamily=Helvetica;fontSize=11;fontColor=default;labelBackgroundColor=default;endArrow=none;endFill=0;" parent="1" source="jCCVhROzF3LObY4yUFuB-67" edge="1">
          <mxGeometry relative="1" as="geometry">
            <mxPoint x="-662" y="503" as="targetPoint" />
            <Array as="points">
              <mxPoint x="-783" y="621" />
              <mxPoint x="-783" y="503" />
            </Array>
          </mxGeometry>
        </mxCell>
        <mxCell id="jCCVhROzF3LObY4yUFuB-67" value="" style="ellipse;whiteSpace=wrap;html=1;aspect=fixed;fontSize=10;fontColor=default;fontStyle=0;fillColor=#030303;rounded=0;" parent="1" vertex="1">
          <mxGeometry x="-632" y="618" width="21" height="21" as="geometry" />
        </mxCell>
        <mxCell id="jCCVhROzF3LObY4yUFuB-72" style="edgeStyle=none;rounded=0;orthogonalLoop=1;jettySize=auto;html=1;exitX=1;exitY=0.5;exitDx=0;exitDy=0;strokeColor=default;align=center;verticalAlign=middle;fontFamily=Helvetica;fontSize=11;fontColor=default;labelBackgroundColor=default;endArrow=none;endFill=0;" parent="1" source="jCCVhROzF3LObY4yUFuB-69" target="jCCVhROzF3LObY4yUFuB-70" edge="1">
          <mxGeometry relative="1" as="geometry" />
        </mxCell>
        <mxCell id="jCCVhROzF3LObY4yUFuB-69" value="Si svolge in" style="shape=rhombus;strokeWidth=2;fontSize=13;perimeter=rhombusPerimeter;whiteSpace=wrap;html=1;align=center;rounded=0;" parent="1" vertex="1">
          <mxGeometry x="-565.5" y="505" width="119" height="47" as="geometry" />
        </mxCell>
        <mxCell id="jCCVhROzF3LObY4yUFuB-70" value="Aula" style="strokeWidth=2;whiteSpace=wrap;html=1;align=center;fontSize=13;fontFamily=Helvetica;rounded=0;" parent="1" vertex="1">
          <mxGeometry x="-374" y="510.5" width="118" height="36" as="geometry" />
        </mxCell>
        <mxCell id="jCCVhROzF3LObY4yUFuB-73" value="(0,n)" style="text;html=1;align=center;verticalAlign=middle;resizable=0;points=[];autosize=1;strokeColor=none;fillColor=none;fontFamily=Helvetica;fontSize=11;fontColor=default;labelBackgroundColor=default;" parent="1" vertex="1">
          <mxGeometry x="-624.5" y="505" width="41" height="25" as="geometry" />
        </mxCell>
        <mxCell id="jCCVhROzF3LObY4yUFuB-74" value="(0,n)" style="text;html=1;align=center;verticalAlign=middle;resizable=0;points=[];autosize=1;strokeColor=none;fillColor=none;fontFamily=Helvetica;fontSize=11;fontColor=default;labelBackgroundColor=default;" parent="1" vertex="1">
          <mxGeometry x="-433.5" y="500" width="41" height="25" as="geometry" />
        </mxCell>
        <mxCell id="jCCVhROzF3LObY4yUFuB-75" value="" style="group" parent="1" vertex="1" connectable="0">
          <mxGeometry x="-379" y="426" width="63" height="51" as="geometry" />
        </mxCell>
        <mxCell id="jCCVhROzF3LObY4yUFuB-76" value="" style="ellipse;whiteSpace=wrap;html=1;aspect=fixed;fontSize=10;fontColor=default;fontStyle=0;rounded=0;" parent="jCCVhROzF3LObY4yUFuB-75" vertex="1">
          <mxGeometry x="22.5" y="34" width="17" height="17" as="geometry" />
        </mxCell>
        <mxCell id="jCCVhROzF3LObY4yUFuB-77" value="Piano" style="text;html=1;align=center;verticalAlign=middle;resizable=0;points=[];autosize=1;strokeColor=none;fillColor=none;rounded=0;" parent="jCCVhROzF3LObY4yUFuB-75" vertex="1">
          <mxGeometry x="8" width="50" height="26" as="geometry" />
        </mxCell>
        <mxCell id="jCCVhROzF3LObY4yUFuB-78" value="" style="group" parent="1" vertex="1" connectable="0">
          <mxGeometry x="-321.5" y="426" width="65" height="51" as="geometry" />
        </mxCell>
        <mxCell id="jCCVhROzF3LObY4yUFuB-79" value="" style="ellipse;whiteSpace=wrap;html=1;aspect=fixed;fontSize=10;fontColor=default;fontStyle=0;rounded=0;" parent="jCCVhROzF3LObY4yUFuB-78" vertex="1">
          <mxGeometry x="22.5" y="34" width="17" height="17" as="geometry" />
        </mxCell>
        <mxCell id="jCCVhROzF3LObY4yUFuB-80" value="&lt;div&gt;Numero&lt;/div&gt;&lt;div&gt;Aula&lt;br&gt;&lt;/div&gt;" style="text;html=1;align=center;verticalAlign=middle;resizable=0;points=[];autosize=1;strokeColor=none;fillColor=none;rounded=0;" parent="jCCVhROzF3LObY4yUFuB-78" vertex="1">
          <mxGeometry x="2" y="-7" width="63" height="41" as="geometry" />
        </mxCell>
        <mxCell id="jCCVhROzF3LObY4yUFuB-82" style="edgeStyle=none;rounded=0;orthogonalLoop=1;jettySize=auto;html=1;exitX=0.5;exitY=1;exitDx=0;exitDy=0;entryX=0.25;entryY=0;entryDx=0;entryDy=0;strokeColor=default;align=center;verticalAlign=middle;fontFamily=Helvetica;fontSize=11;fontColor=default;labelBackgroundColor=default;endArrow=none;endFill=0;" parent="1" source="jCCVhROzF3LObY4yUFuB-76" target="jCCVhROzF3LObY4yUFuB-70" edge="1">
          <mxGeometry relative="1" as="geometry" />
        </mxCell>
        <mxCell id="jCCVhROzF3LObY4yUFuB-83" style="edgeStyle=none;rounded=0;orthogonalLoop=1;jettySize=auto;html=1;exitX=0.5;exitY=1;exitDx=0;exitDy=0;entryX=0.75;entryY=0;entryDx=0;entryDy=0;strokeColor=default;align=center;verticalAlign=middle;fontFamily=Helvetica;fontSize=11;fontColor=default;labelBackgroundColor=default;endArrow=none;endFill=0;" parent="1" source="jCCVhROzF3LObY4yUFuB-79" target="jCCVhROzF3LObY4yUFuB-70" edge="1">
          <mxGeometry relative="1" as="geometry" />
        </mxCell>
        <mxCell id="jCCVhROzF3LObY4yUFuB-85" style="edgeStyle=none;rounded=0;orthogonalLoop=1;jettySize=auto;html=1;exitX=1;exitY=0.5;exitDx=0;exitDy=0;strokeColor=default;align=center;verticalAlign=middle;fontFamily=Helvetica;fontSize=11;fontColor=default;labelBackgroundColor=default;endArrow=none;endFill=0;" parent="1" source="jCCVhROzF3LObY4yUFuB-84" edge="1">
          <mxGeometry relative="1" as="geometry">
            <mxPoint x="-264.14285714285734" y="491.57142857142856" as="targetPoint" />
          </mxGeometry>
        </mxCell>
        <mxCell id="jCCVhROzF3LObY4yUFuB-84" value="" style="ellipse;whiteSpace=wrap;html=1;aspect=fixed;fontSize=10;fontColor=default;fontStyle=0;fillColor=#030303;rounded=0;" parent="1" vertex="1">
          <mxGeometry x="-387" y="483" width="17" height="17" as="geometry" />
        </mxCell>
        <mxCell id="jCCVhROzF3LObY4yUFuB-89" style="edgeStyle=none;rounded=0;orthogonalLoop=1;jettySize=auto;html=1;exitX=0.5;exitY=0;exitDx=0;exitDy=0;entryX=0.5;entryY=1;entryDx=0;entryDy=0;strokeColor=default;align=center;verticalAlign=middle;fontFamily=Helvetica;fontSize=11;fontColor=default;labelBackgroundColor=default;endArrow=none;endFill=0;" parent="1" source="jCCVhROzF3LObY4yUFuB-86" target="jCCVhROzF3LObY4yUFuB-88" edge="1">
          <mxGeometry relative="1" as="geometry" />
        </mxCell>
        <mxCell id="jCCVhROzF3LObY4yUFuB-95" style="edgeStyle=none;rounded=0;orthogonalLoop=1;jettySize=auto;html=1;exitX=1;exitY=0.25;exitDx=0;exitDy=0;strokeColor=default;align=center;verticalAlign=middle;fontFamily=Helvetica;fontSize=11;fontColor=default;labelBackgroundColor=default;endArrow=none;endFill=0;" parent="1" source="jCCVhROzF3LObY4yUFuB-86" target="jCCVhROzF3LObY4yUFuB-93" edge="1">
          <mxGeometry relative="1" as="geometry" />
        </mxCell>
        <mxCell id="jCCVhROzF3LObY4yUFuB-86" value="Studente" style="strokeWidth=2;whiteSpace=wrap;html=1;align=center;fontSize=13;fontFamily=Helvetica;rounded=0;" parent="1" vertex="1">
          <mxGeometry x="-753" y="786.25" width="118" height="36" as="geometry" />
        </mxCell>
        <mxCell id="jCCVhROzF3LObY4yUFuB-90" style="edgeStyle=none;rounded=0;orthogonalLoop=1;jettySize=auto;html=1;exitX=0.5;exitY=0;exitDx=0;exitDy=0;entryX=0.5;entryY=1;entryDx=0;entryDy=0;strokeColor=default;align=center;verticalAlign=middle;fontFamily=Helvetica;fontSize=11;fontColor=default;labelBackgroundColor=default;endArrow=none;endFill=0;" parent="1" source="jCCVhROzF3LObY4yUFuB-88" target="jCCVhROzF3LObY4yUFuB-51" edge="1">
          <mxGeometry relative="1" as="geometry" />
        </mxCell>
        <mxCell id="jCCVhROzF3LObY4yUFuB-88" value="Sostiene" style="shape=rhombus;strokeWidth=2;fontSize=13;perimeter=rhombusPerimeter;whiteSpace=wrap;html=1;align=center;rounded=0;" parent="1" vertex="1">
          <mxGeometry x="-757" y="691.25" width="119" height="47" as="geometry" />
        </mxCell>
        <mxCell id="jCCVhROzF3LObY4yUFuB-91" value="&lt;div&gt;(0,n)&lt;/div&gt;" style="text;html=1;align=center;verticalAlign=middle;resizable=0;points=[];autosize=1;strokeColor=none;fillColor=none;fontFamily=Helvetica;fontSize=11;fontColor=default;labelBackgroundColor=default;" parent="1" vertex="1">
          <mxGeometry x="-699" y="746.25" width="41" height="25" as="geometry" />
        </mxCell>
        <mxCell id="jCCVhROzF3LObY4yUFuB-92" value="(1,n)" style="text;html=1;align=center;verticalAlign=middle;resizable=0;points=[];autosize=1;strokeColor=none;fillColor=none;fontFamily=Helvetica;fontSize=11;fontColor=default;labelBackgroundColor=default;" parent="1" vertex="1">
          <mxGeometry x="-704.5" y="567" width="41" height="25" as="geometry" />
        </mxCell>
        <mxCell id="jCCVhROzF3LObY4yUFuB-93" value="" style="ellipse;whiteSpace=wrap;html=1;aspect=fixed;fontSize=10;fontColor=default;fontStyle=0;fillColor=#030303;rounded=0;" parent="1" vertex="1">
          <mxGeometry x="-601.5" y="786.25" width="17" height="17" as="geometry" />
        </mxCell>
        <mxCell id="jCCVhROzF3LObY4yUFuB-94" value="Matricola" style="text;html=1;align=center;verticalAlign=middle;resizable=0;points=[];autosize=1;strokeColor=none;fillColor=none;fontFamily=Helvetica;fontSize=11;fontColor=default;labelBackgroundColor=default;" parent="1" vertex="1">
          <mxGeometry x="-580.5" y="782.25" width="61" height="25" as="geometry" />
        </mxCell>
        <mxCell id="jCCVhROzF3LObY4yUFuB-97" style="edgeStyle=none;rounded=0;orthogonalLoop=1;jettySize=auto;html=1;exitX=1;exitY=0.5;exitDx=0;exitDy=0;strokeColor=default;align=center;verticalAlign=middle;fontFamily=Helvetica;fontSize=11;fontColor=default;labelBackgroundColor=default;endArrow=none;endFill=0;entryX=0.75;entryY=1;entryDx=0;entryDy=0;" parent="1" source="jCCVhROzF3LObY4yUFuB-96" target="jCCVhROzF3LObY4yUFuB-51" edge="1">
          <mxGeometry relative="1" as="geometry">
            <Array as="points">
              <mxPoint x="-537" y="667" />
            </Array>
          </mxGeometry>
        </mxCell>
        <mxCell id="jCCVhROzF3LObY4yUFuB-96" value="" style="ellipse;whiteSpace=wrap;html=1;aspect=fixed;fontSize=10;fontColor=default;fontStyle=0;rounded=0;" parent="1" vertex="1">
          <mxGeometry x="-607.5" y="690" width="17" height="17" as="geometry" />
        </mxCell>
        <mxCell id="jCCVhROzF3LObY4yUFuB-98" value="Voto" style="text;html=1;align=center;verticalAlign=middle;resizable=0;points=[];autosize=1;strokeColor=none;fillColor=none;fontFamily=Helvetica;fontSize=11;fontColor=default;labelBackgroundColor=default;" parent="1" vertex="1">
          <mxGeometry x="-579.5" y="686" width="40" height="25" as="geometry" />
        </mxCell>
        <mxCell id="jCCVhROzF3LObY4yUFuB-103" value="" style="ellipse;whiteSpace=wrap;html=1;aspect=fixed;fontSize=10;fontColor=default;fontStyle=0;rounded=0;" parent="1" vertex="1">
          <mxGeometry x="-777" y="857.25" width="17" height="17" as="geometry" />
        </mxCell>
        <mxCell id="jCCVhROzF3LObY4yUFuB-104" style="edgeStyle=none;rounded=0;orthogonalLoop=1;jettySize=auto;html=1;exitX=1;exitY=0;exitDx=0;exitDy=0;entryX=0.096;entryY=1.016;entryDx=0;entryDy=0;entryPerimeter=0;strokeColor=default;align=center;verticalAlign=middle;fontFamily=Helvetica;fontSize=11;fontColor=default;labelBackgroundColor=default;endArrow=none;endFill=0;" parent="1" source="jCCVhROzF3LObY4yUFuB-103" target="jCCVhROzF3LObY4yUFuB-86" edge="1">
          <mxGeometry relative="1" as="geometry" />
        </mxCell>
        <mxCell id="jCCVhROzF3LObY4yUFuB-105" value="Nome" style="text;html=1;align=center;verticalAlign=middle;resizable=0;points=[];autosize=1;strokeColor=none;fillColor=none;fontFamily=Helvetica;fontSize=11;fontColor=default;labelBackgroundColor=default;" parent="1" vertex="1">
          <mxGeometry x="-805" y="874.25" width="45" height="25" as="geometry" />
        </mxCell>
        <mxCell id="jCCVhROzF3LObY4yUFuB-107" style="edgeStyle=none;rounded=0;orthogonalLoop=1;jettySize=auto;html=1;exitX=0.5;exitY=0;exitDx=0;exitDy=0;entryX=0.25;entryY=1;entryDx=0;entryDy=0;strokeColor=default;align=center;verticalAlign=middle;fontFamily=Helvetica;fontSize=11;fontColor=default;labelBackgroundColor=default;endArrow=none;endFill=0;" parent="1" source="jCCVhROzF3LObY4yUFuB-106" target="jCCVhROzF3LObY4yUFuB-86" edge="1">
          <mxGeometry relative="1" as="geometry" />
        </mxCell>
        <mxCell id="jCCVhROzF3LObY4yUFuB-106" value="" style="ellipse;whiteSpace=wrap;html=1;aspect=fixed;fontSize=10;fontColor=default;fontStyle=0;rounded=0;" parent="1" vertex="1">
          <mxGeometry x="-741" y="861.25" width="17" height="17" as="geometry" />
        </mxCell>
        <mxCell id="jCCVhROzF3LObY4yUFuB-108" value="Cognome" style="text;html=1;align=center;verticalAlign=middle;resizable=0;points=[];autosize=1;strokeColor=none;fillColor=none;fontFamily=Helvetica;fontSize=11;fontColor=default;labelBackgroundColor=default;" parent="1" vertex="1">
          <mxGeometry x="-767.5" y="880.25" width="63" height="25" as="geometry" />
        </mxCell>
        <mxCell id="jCCVhROzF3LObY4yUFuB-110" style="edgeStyle=none;rounded=0;orthogonalLoop=1;jettySize=auto;html=1;exitX=0.5;exitY=0;exitDx=0;exitDy=0;entryX=0.5;entryY=1;entryDx=0;entryDy=0;strokeColor=default;align=center;verticalAlign=middle;fontFamily=Helvetica;fontSize=11;fontColor=default;labelBackgroundColor=default;endArrow=none;endFill=0;" parent="1" source="jCCVhROzF3LObY4yUFuB-109" target="jCCVhROzF3LObY4yUFuB-86" edge="1">
          <mxGeometry relative="1" as="geometry" />
        </mxCell>
        <mxCell id="jCCVhROzF3LObY4yUFuB-109" value="" style="ellipse;whiteSpace=wrap;html=1;aspect=fixed;fontSize=10;fontColor=default;fontStyle=0;rounded=0;" parent="1" vertex="1">
          <mxGeometry x="-697" y="861.25" width="17" height="17" as="geometry" />
        </mxCell>
        <mxCell id="jCCVhROzF3LObY4yUFuB-111" value="&lt;div&gt;Data di&lt;/div&gt;&lt;div&gt;nascita&lt;br&gt;&lt;/div&gt;" style="text;html=1;align=center;verticalAlign=middle;resizable=0;points=[];autosize=1;strokeColor=none;fillColor=none;fontFamily=Helvetica;fontSize=11;fontColor=default;labelBackgroundColor=default;" parent="1" vertex="1">
          <mxGeometry x="-711" y="878.25" width="53" height="38" as="geometry" />
        </mxCell>
        <mxCell id="jCCVhROzF3LObY4yUFuB-114" style="edgeStyle=none;rounded=0;orthogonalLoop=1;jettySize=auto;html=1;exitX=0.5;exitY=1;exitDx=0;exitDy=0;entryX=0;entryY=0.5;entryDx=0;entryDy=0;strokeColor=default;align=center;verticalAlign=middle;fontFamily=Helvetica;fontSize=11;fontColor=default;labelBackgroundColor=default;endArrow=none;endFill=0;" parent="1" source="jCCVhROzF3LObY4yUFuB-112" target="jCCVhROzF3LObY4yUFuB-86" edge="1">
          <mxGeometry relative="1" as="geometry">
            <Array as="points">
              <mxPoint x="-959" y="704" />
            </Array>
          </mxGeometry>
        </mxCell>
        <mxCell id="jCCVhROzF3LObY4yUFuB-112" value="É iscritto" style="shape=rhombus;strokeWidth=2;fontSize=13;perimeter=rhombusPerimeter;whiteSpace=wrap;html=1;align=center;rounded=0;" parent="1" vertex="1">
          <mxGeometry x="-1023" y="510.5" width="119" height="47" as="geometry" />
        </mxCell>
        <mxCell id="jCCVhROzF3LObY4yUFuB-115" value="(1,n)" style="text;html=1;align=center;verticalAlign=middle;resizable=0;points=[];autosize=1;strokeColor=none;fillColor=none;fontFamily=Helvetica;fontSize=11;fontColor=default;labelBackgroundColor=default;" parent="1" vertex="1">
          <mxGeometry x="-823.5" y="746.25" width="41" height="25" as="geometry" />
        </mxCell>
        <mxCell id="jCCVhROzF3LObY4yUFuB-116" value="(1,n)" style="text;html=1;align=center;verticalAlign=middle;resizable=0;points=[];autosize=1;strokeColor=none;fillColor=none;fontFamily=Helvetica;fontSize=11;fontColor=default;labelBackgroundColor=default;" parent="1" vertex="1">
          <mxGeometry x="-847.5" y="362" width="41" height="25" as="geometry" />
        </mxCell>
        <mxCell id="jCCVhROzF3LObY4yUFuB-117" value="" style="group" parent="1" vertex="1" connectable="0">
          <mxGeometry x="-390" y="231" width="63" height="51" as="geometry" />
        </mxCell>
        <mxCell id="jCCVhROzF3LObY4yUFuB-118" value="" style="ellipse;whiteSpace=wrap;html=1;aspect=fixed;fontSize=10;fontColor=default;fontStyle=0;rounded=0;" parent="jCCVhROzF3LObY4yUFuB-117" vertex="1">
          <mxGeometry x="22.5" y="34" width="17" height="17" as="geometry" />
        </mxCell>
        <mxCell id="jCCVhROzF3LObY4yUFuB-119" value="Autori" style="text;html=1;align=center;verticalAlign=middle;resizable=0;points=[];autosize=1;strokeColor=none;fillColor=none;rounded=0;" parent="jCCVhROzF3LObY4yUFuB-117" vertex="1">
          <mxGeometry x="8" width="49" height="26" as="geometry" />
        </mxCell>
        <mxCell id="jCCVhROzF3LObY4yUFuB-120" style="edgeStyle=none;rounded=0;orthogonalLoop=1;jettySize=auto;html=1;exitX=0.5;exitY=1;exitDx=0;exitDy=0;strokeColor=default;align=center;verticalAlign=middle;fontFamily=Helvetica;fontSize=11;fontColor=default;labelBackgroundColor=default;endArrow=none;endFill=0;" parent="1" source="jCCVhROzF3LObY4yUFuB-118" target="jCCVhROzF3LObY4yUFuB-24" edge="1">
          <mxGeometry relative="1" as="geometry" />
        </mxCell>
        <mxCell id="jCCVhROzF3LObY4yUFuB-121" value="Contiene" style="shape=rhombus;strokeWidth=2;fontSize=13;perimeter=rhombusPerimeter;whiteSpace=wrap;html=1;align=center;rounded=0;" parent="1" vertex="1">
          <mxGeometry x="-185" y="323" width="119" height="47" as="geometry" />
        </mxCell>
        <mxCell id="jCCVhROzF3LObY4yUFuB-124" style="edgeStyle=none;rounded=0;orthogonalLoop=1;jettySize=auto;html=1;exitX=0.5;exitY=0;exitDx=0;exitDy=0;strokeColor=default;align=center;verticalAlign=middle;fontFamily=Helvetica;fontSize=11;fontColor=default;labelBackgroundColor=default;endArrow=none;endFill=0;" parent="1" source="jCCVhROzF3LObY4yUFuB-123" target="jCCVhROzF3LObY4yUFuB-121" edge="1">
          <mxGeometry relative="1" as="geometry" />
        </mxCell>
        <mxCell id="jCCVhROzF3LObY4yUFuB-123" value="Capitoli" style="strokeWidth=2;whiteSpace=wrap;html=1;align=center;fontSize=13;fontFamily=Helvetica;rounded=0;" parent="1" vertex="1">
          <mxGeometry x="-181" y="450" width="118" height="36" as="geometry" />
        </mxCell>
        <mxCell id="jCCVhROzF3LObY4yUFuB-125" value="(1,n)" style="text;html=1;align=center;verticalAlign=middle;resizable=0;points=[];autosize=1;strokeColor=none;fillColor=none;fontFamily=Helvetica;fontSize=11;fontColor=default;labelBackgroundColor=default;" parent="1" vertex="1">
          <mxGeometry x="-269.5" y="323" width="41" height="25" as="geometry" />
        </mxCell>
        <mxCell id="jCCVhROzF3LObY4yUFuB-126" value="(1,1)" style="text;html=1;align=center;verticalAlign=middle;resizable=0;points=[];autosize=1;strokeColor=none;fillColor=none;fontFamily=Helvetica;fontSize=11;fontColor=default;labelBackgroundColor=default;" parent="1" vertex="1">
          <mxGeometry x="-126.5" y="401" width="41" height="25" as="geometry" />
        </mxCell>
        <mxCell id="jCCVhROzF3LObY4yUFuB-133" style="edgeStyle=none;rounded=0;orthogonalLoop=1;jettySize=auto;html=1;exitX=0;exitY=0.5;exitDx=0;exitDy=0;strokeColor=default;align=center;verticalAlign=middle;fontFamily=Helvetica;fontSize=11;fontColor=default;labelBackgroundColor=default;endArrow=none;endFill=0;entryX=0.949;entryY=0.944;entryDx=0;entryDy=0;entryPerimeter=0;" parent="1" source="jCCVhROzF3LObY4yUFuB-128" target="jCCVhROzF3LObY4yUFuB-123" edge="1">
          <mxGeometry relative="1" as="geometry">
            <mxPoint x="-63" y="529.5895196506551" as="targetPoint" />
          </mxGeometry>
        </mxCell>
        <mxCell id="jCCVhROzF3LObY4yUFuB-128" value="" style="ellipse;whiteSpace=wrap;html=1;aspect=fixed;fontSize=10;fontColor=default;fontStyle=0;rounded=0;" parent="1" vertex="1">
          <mxGeometry x="-7.5" y="516" width="17" height="17" as="geometry" />
        </mxCell>
        <mxCell id="jCCVhROzF3LObY4yUFuB-129" value="Titolo" style="text;html=1;align=center;verticalAlign=middle;resizable=0;points=[];autosize=1;strokeColor=none;fillColor=none;rounded=0;" parent="1" vertex="1">
          <mxGeometry x="19" y="507" width="48" height="26" as="geometry" />
        </mxCell>
        <mxCell id="jCCVhROzF3LObY4yUFuB-132" style="edgeStyle=none;rounded=0;orthogonalLoop=1;jettySize=auto;html=1;exitX=0;exitY=0.5;exitDx=0;exitDy=0;strokeColor=default;align=center;verticalAlign=middle;fontFamily=Helvetica;fontSize=11;fontColor=default;labelBackgroundColor=default;endArrow=none;endFill=0;" parent="1" source="jCCVhROzF3LObY4yUFuB-130" target="jCCVhROzF3LObY4yUFuB-123" edge="1">
          <mxGeometry relative="1" as="geometry" />
        </mxCell>
        <mxCell id="jCCVhROzF3LObY4yUFuB-130" value="" style="ellipse;whiteSpace=wrap;html=1;aspect=fixed;fontSize=10;fontColor=default;fontStyle=0;rounded=0;labelBackgroundColor=none;fillColor=none;" parent="1" vertex="1">
          <mxGeometry x="-5" y="440.5" width="17" height="17" as="geometry" />
        </mxCell>
        <mxCell id="jCCVhROzF3LObY4yUFuB-131" value="Numero" style="text;html=1;align=center;verticalAlign=middle;resizable=0;points=[];autosize=1;strokeColor=none;fillColor=none;rounded=0;" parent="1" vertex="1">
          <mxGeometry x="16.5" y="432.5" width="63" height="26" as="geometry" />
        </mxCell>
        <mxCell id="jCCVhROzF3LObY4yUFuB-135" style="edgeStyle=none;rounded=0;orthogonalLoop=1;jettySize=auto;html=1;exitX=1;exitY=0.5;exitDx=0;exitDy=0;strokeColor=default;align=center;verticalAlign=middle;fontFamily=Helvetica;fontSize=11;fontColor=default;labelBackgroundColor=default;endArrow=none;endFill=0;" parent="1" source="jCCVhROzF3LObY4yUFuB-134" target="jCCVhROzF3LObY4yUFuB-123" edge="1">
          <mxGeometry relative="1" as="geometry">
            <Array as="points">
              <mxPoint x="-119" y="640" />
            </Array>
          </mxGeometry>
        </mxCell>
        <mxCell id="jCCVhROzF3LObY4yUFuB-136" style="edgeStyle=none;rounded=0;orthogonalLoop=1;jettySize=auto;html=1;exitX=0;exitY=0.5;exitDx=0;exitDy=0;strokeColor=default;align=center;verticalAlign=middle;fontFamily=Helvetica;fontSize=11;fontColor=default;labelBackgroundColor=default;endArrow=none;endFill=0;" parent="1" source="jCCVhROzF3LObY4yUFuB-134" target="jCCVhROzF3LObY4yUFuB-51" edge="1">
          <mxGeometry relative="1" as="geometry">
            <Array as="points">
              <mxPoint x="-511" y="620" />
            </Array>
          </mxGeometry>
        </mxCell>
        <mxCell id="jCCVhROzF3LObY4yUFuB-134" value="&lt;div&gt;É oggetto di&lt;/div&gt;&lt;div&gt;domande&lt;br&gt;&lt;/div&gt;" style="shape=rhombus;strokeWidth=2;fontSize=13;perimeter=rhombusPerimeter;whiteSpace=wrap;html=1;align=center;rounded=0;" parent="1" vertex="1">
          <mxGeometry x="-398" y="616" width="119" height="47" as="geometry" />
        </mxCell>
        <mxCell id="jCCVhROzF3LObY4yUFuB-137" value="(1,n)" style="text;html=1;align=center;verticalAlign=middle;resizable=0;points=[];autosize=1;strokeColor=none;fillColor=none;fontFamily=Helvetica;fontSize=11;fontColor=default;labelBackgroundColor=default;" parent="1" vertex="1">
          <mxGeometry x="-462" y="602" width="41" height="25" as="geometry" />
        </mxCell>
        <mxCell id="jCCVhROzF3LObY4yUFuB-138" value="(0,n)" style="text;html=1;align=center;verticalAlign=middle;resizable=0;points=[];autosize=1;strokeColor=none;fillColor=none;fontFamily=Helvetica;fontSize=11;fontColor=default;labelBackgroundColor=default;" parent="1" vertex="1">
          <mxGeometry x="-269.5" y="613" width="41" height="25" as="geometry" />
        </mxCell>
        <mxCell id="Wjeym2NHzJZhBgAnzGJS-1" value="(1,n)" style="text;html=1;align=center;verticalAlign=middle;resizable=0;points=[];autosize=1;strokeColor=none;fillColor=none;" vertex="1" parent="1">
          <mxGeometry x="-395.5" y="280" width="43" height="26" as="geometry" />
        </mxCell>
        <mxCell id="Wjeym2NHzJZhBgAnzGJS-4" value="" style="edgeStyle=none;orthogonalLoop=1;jettySize=auto;html=1;rounded=0;endArrow=oval;endFill=1;strokeWidth=1;endSize=21;" edge="1" parent="1">
          <mxGeometry width="80" relative="1" as="geometry">
            <mxPoint x="-192" y="391" as="sourcePoint" />
            <mxPoint x="-15" y="479" as="targetPoint" />
            <Array as="points">
              <mxPoint x="-21" y="399" />
            </Array>
          </mxGeometry>
        </mxCell>
      </root>
    </mxGraphModel>
  </diagram>
</mxfile>
